<?xml version="1.0" encoding="UTF-8" standalone="no"?>
<svg
   xmlns:dc="http://purl.org/dc/elements/1.1/"
   xmlns:cc="http://creativecommons.org/ns#"
   xmlns:rdf="http://www.w3.org/1999/02/22-rdf-syntax-ns#"
   xmlns:svg="http://www.w3.org/2000/svg"
   xmlns="http://www.w3.org/2000/svg"
   viewBox="0 0 402.02933 314.18268"
   height="314.18268"
   width="402.02933"
   xml:space="preserve"
   id="svg2"
   version="1.1"><metadata
     id="metadata8"><rdf:RDF><cc:Work
         rdf:about=""><dc:format>image/svg+xml</dc:format><dc:type
           rdf:resource="http://purl.org/dc/dcmitype/StillImage" /></cc:Work></rdf:RDF></metadata><defs
     id="defs6"><clipPath
       id="clipPath18"
       clipPathUnits="userSpaceOnUse"><path
         id="path16"
         d="M 0,235.637 H 301.522 V 0 H 0 Z" /></clipPath><linearGradient
       id="linearGradient240"
       spreadMethod="pad"
       gradientTransform="matrix(48.416191,0,0,48.416191,126.81496,104.34644)"
       gradientUnits="userSpaceOnUse"
       y2="0"
       x2="1"
       y1="0"
       x1="0"><stop
         id="stop220"
         offset="0"
         style="stop-opacity:1;stop-color:#ef3620" /><stop
         id="stop222"
         offset="0.09943"
         style="stop-opacity:1;stop-color:#ef3620" /><stop
         id="stop224"
         offset="0.16121973"
         style="stop-opacity:1;stop-color:#ef3620" /><stop
         id="stop226"
         offset="0.245655"
         style="stop-opacity:1;stop-color:#b62234" /><stop
         id="stop228"
         offset="0.37025862"
         style="stop-opacity:1;stop-color:#b62234" /><stop
         id="stop230"
         offset="0.528739"
         style="stop-opacity:1;stop-color:#fbc707" /><stop
         id="stop232"
         offset="0.70615248"
         style="stop-opacity:1;stop-color:#b62234" /><stop
         id="stop234"
         offset="0.737285"
         style="stop-opacity:1;stop-color:#b62234" /><stop
         id="stop236"
         offset="0.987703"
         style="stop-opacity:1;stop-color:#ee2522" /><stop
         id="stop238"
         offset="1"
         style="stop-opacity:1;stop-color:#ee2522" /></linearGradient><linearGradient
       id="linearGradient276"
       spreadMethod="pad"
       gradientTransform="matrix(38.040356,0,0,38.040356,132.00282,107.16818)"
       gradientUnits="userSpaceOnUse"
       y2="0"
       x2="1"
       y1="0"
       x1="0"><stop
         id="stop256"
         offset="0"
         style="stop-opacity:1;stop-color:#ef3620" /><stop
         id="stop258"
         offset="0.09943"
         style="stop-opacity:1;stop-color:#ef3620" /><stop
         id="stop260"
         offset="0.16121973"
         style="stop-opacity:1;stop-color:#ef3620" /><stop
         id="stop262"
         offset="0.245655"
         style="stop-opacity:1;stop-color:#b62234" /><stop
         id="stop264"
         offset="0.37025862"
         style="stop-opacity:1;stop-color:#b62234" /><stop
         id="stop266"
         offset="0.528739"
         style="stop-opacity:1;stop-color:#fbc707" /><stop
         id="stop268"
         offset="0.70615248"
         style="stop-opacity:1;stop-color:#b62234" /><stop
         id="stop270"
         offset="0.737285"
         style="stop-opacity:1;stop-color:#b62234" /><stop
         id="stop272"
         offset="0.987703"
         style="stop-opacity:1;stop-color:#ee2522" /><stop
         id="stop274"
         offset="1"
         style="stop-opacity:1;stop-color:#ee2522" /></linearGradient><linearGradient
       id="linearGradient298"
       spreadMethod="pad"
       gradientTransform="matrix(8.872859,0,0,8.872859,80.446137,124.49518)"
       gradientUnits="userSpaceOnUse"
       y2="0"
       x2="1"
       y1="0"
       x1="0"><stop
         id="stop292"
         offset="0"
         style="stop-opacity:1;stop-color:#fad310" /><stop
         id="stop294"
         offset="0.70626955"
         style="stop-opacity:1;stop-color:#ee2522" /><stop
         id="stop296"
         offset="1"
         style="stop-opacity:1;stop-color:#ee2522" /></linearGradient><linearGradient
       id="linearGradient320"
       spreadMethod="pad"
       gradientTransform="matrix(7.0547199,0,0,7.0547199,75.8041,124.36877)"
       gradientUnits="userSpaceOnUse"
       y2="0"
       x2="1"
       y1="0"
       x1="0"><stop
         id="stop314"
         offset="0"
         style="stop-opacity:1;stop-color:#fad310" /><stop
         id="stop316"
         offset="0.70626955"
         style="stop-opacity:1;stop-color:#ee2522" /><stop
         id="stop318"
         offset="1"
         style="stop-opacity:1;stop-color:#ee2522" /></linearGradient><linearGradient
       id="linearGradient342"
       spreadMethod="pad"
       gradientTransform="matrix(-8.872901,0,0,8.872901,221.31104,124.49518)"
       gradientUnits="userSpaceOnUse"
       y2="0"
       x2="1"
       y1="0"
       x1="0"><stop
         id="stop336"
         offset="0"
         style="stop-opacity:1;stop-color:#fad310" /><stop
         id="stop338"
         offset="0.70626955"
         style="stop-opacity:1;stop-color:#ee2522" /><stop
         id="stop340"
         offset="1"
         style="stop-opacity:1;stop-color:#ee2522" /></linearGradient><linearGradient
       id="linearGradient364"
       spreadMethod="pad"
       gradientTransform="matrix(-7.054677,0,0,7.054677,225.95308,124.36877)"
       gradientUnits="userSpaceOnUse"
       y2="0"
       x2="1"
       y1="0"
       x1="0"><stop
         id="stop358"
         offset="0"
         style="stop-opacity:1;stop-color:#fad310" /><stop
         id="stop360"
         offset="0.70626955"
         style="stop-opacity:1;stop-color:#ee2522" /><stop
         id="stop362"
         offset="1"
         style="stop-opacity:1;stop-color:#ee2522" /></linearGradient><linearGradient
       id="linearGradient400"
       spreadMethod="pad"
       gradientTransform="matrix(-3.3e-6,76.116661,-76.116661,-3.3e-6,125.18426,118.08672)"
       gradientUnits="userSpaceOnUse"
       y2="0"
       x2="1"
       y1="0"
       x1="0"><stop
         id="stop380"
         offset="0"
         style="stop-opacity:1;stop-color:#ed192e" /><stop
         id="stop382"
         offset="0.09943"
         style="stop-opacity:1;stop-color:#ed192e" /><stop
         id="stop384"
         offset="0.25003468"
         style="stop-opacity:1;stop-color:#ed192e" /><stop
         id="stop386"
         offset="0.455835"
         style="stop-opacity:1;stop-color:#f8a10e" /><stop
         id="stop388"
         offset="0.55481732"
         style="stop-opacity:1;stop-color:#f03e1e" /><stop
         id="stop390"
         offset="0.629644"
         style="stop-opacity:1;stop-color:#f03e1e" /><stop
         id="stop392"
         offset="0.70171791"
         style="stop-opacity:1;stop-color:#f03e1e" /><stop
         id="stop394"
         offset="0.793387"
         style="stop-opacity:1;stop-color:#ee2522" /><stop
         id="stop396"
         offset="0.976861"
         style="stop-opacity:1;stop-color:#ed192e" /><stop
         id="stop398"
         offset="1"
         style="stop-opacity:1;stop-color:#ed192e" /></linearGradient><linearGradient
       id="linearGradient436"
       spreadMethod="pad"
       gradientTransform="matrix(-3.3e-6,76.59819,-76.59819,-3.3e-6,172.55315,118.41362)"
       gradientUnits="userSpaceOnUse"
       y2="0"
       x2="1"
       y1="0"
       x1="0"><stop
         id="stop416"
         offset="0"
         style="stop-opacity:1;stop-color:#ed192e" /><stop
         id="stop418"
         offset="0.09943"
         style="stop-opacity:1;stop-color:#ed192e" /><stop
         id="stop420"
         offset="0.25003468"
         style="stop-opacity:1;stop-color:#ed192e" /><stop
         id="stop422"
         offset="0.455835"
         style="stop-opacity:1;stop-color:#f8a10e" /><stop
         id="stop424"
         offset="0.55481732"
         style="stop-opacity:1;stop-color:#f03e1e" /><stop
         id="stop426"
         offset="0.629644"
         style="stop-opacity:1;stop-color:#f03e1e" /><stop
         id="stop428"
         offset="0.70171791"
         style="stop-opacity:1;stop-color:#f03e1e" /><stop
         id="stop430"
         offset="0.793387"
         style="stop-opacity:1;stop-color:#ee2522" /><stop
         id="stop432"
         offset="0.976861"
         style="stop-opacity:1;stop-color:#ed192e" /><stop
         id="stop434"
         offset="1"
         style="stop-opacity:1;stop-color:#ed192e" /></linearGradient><linearGradient
       id="linearGradient472"
       spreadMethod="pad"
       gradientTransform="matrix(-3.5e-6,78.832252,-78.832252,-3.5e-6,151.09596,119.06005)"
       gradientUnits="userSpaceOnUse"
       y2="0"
       x2="1"
       y1="0"
       x1="0"><stop
         id="stop452"
         offset="0"
         style="stop-opacity:1;stop-color:#ed192e" /><stop
         id="stop454"
         offset="0.09943"
         style="stop-opacity:1;stop-color:#ed192e" /><stop
         id="stop456"
         offset="0.25003468"
         style="stop-opacity:1;stop-color:#ed192e" /><stop
         id="stop458"
         offset="0.455835"
         style="stop-opacity:1;stop-color:#f8a10e" /><stop
         id="stop460"
         offset="0.55481732"
         style="stop-opacity:1;stop-color:#f03e1e" /><stop
         id="stop462"
         offset="0.629644"
         style="stop-opacity:1;stop-color:#f03e1e" /><stop
         id="stop464"
         offset="0.70171791"
         style="stop-opacity:1;stop-color:#f03e1e" /><stop
         id="stop466"
         offset="0.793387"
         style="stop-opacity:1;stop-color:#ee2522" /><stop
         id="stop468"
         offset="0.976861"
         style="stop-opacity:1;stop-color:#ed192e" /><stop
         id="stop470"
         offset="1"
         style="stop-opacity:1;stop-color:#ed192e" /></linearGradient><linearGradient
       id="linearGradient516"
       spreadMethod="pad"
       gradientTransform="matrix(246.82062,0,0,246.82062,27.351158,122.88326)"
       gradientUnits="userSpaceOnUse"
       y2="0"
       x2="1"
       y1="0"
       x1="0"><stop
         id="stop488"
         offset="0"
         style="stop-opacity:1;stop-color:#ed192e" /><stop
         id="stop490"
         offset="0.09943"
         style="stop-opacity:1;stop-color:#ed192e" /><stop
         id="stop492"
         offset="0.14296149"
         style="stop-opacity:1;stop-color:#ed192e" /><stop
         id="stop494"
         offset="0.202447"
         style="stop-opacity:1;stop-color:#fdda04" /><stop
         id="stop496"
         offset="0.28161224"
         style="stop-opacity:1;stop-color:#f03e1e" /><stop
         id="stop498"
         offset="0.341458"
         style="stop-opacity:1;stop-color:#f03e1e" /><stop
         id="stop500"
         offset="0.41695331"
         style="stop-opacity:1;stop-color:#f03e1e" /><stop
         id="stop502"
         offset="0.512974"
         style="stop-opacity:1;stop-color:#fff200" /><stop
         id="stop504"
         offset="0.58093669"
         style="stop-opacity:1;stop-color:#ee2522" /><stop
         id="stop506"
         offset="0.68473"
         style="stop-opacity:1;stop-color:#ee2522" /><stop
         id="stop508"
         offset="0.808833"
         style="stop-opacity:1;stop-color:#fbc714" /><stop
         id="stop510"
         offset="0.86754484"
         style="stop-opacity:1;stop-color:#ed192e" /><stop
         id="stop512"
         offset="0.976861"
         style="stop-opacity:1;stop-color:#ed192e" /><stop
         id="stop514"
         offset="1"
         style="stop-opacity:1;stop-color:#ed192e" /></linearGradient></defs><g
     transform="matrix(1.3333333,0,0,-1.3333333,0,314.18267)"
     id="g10"><g
       id="g12"><g
         clip-path="url(#clipPath18)"
         id="g14"><g
           transform="translate(260.9406,85.817)"
           id="g20"><path
             id="path22"
             style="fill:#67111a;fill-opacity:1;fill-rule:nonzero;stroke:none"
             d="m 0,0 c 0.364,-0.046 0.64,-0.146 0.825,-0.3 0.186,-0.154 0.403,-0.474 0.651,-0.959 l 3.445,-6.705 0.073,-0.224 0.031,-0.214 c 0,-0.285 -0.223,-0.873 -0.669,-1.764 -0.447,-0.891 -0.871,-1.336 -1.274,-1.336 -0.159,0 -0.423,0.062 -0.794,0.187 -0.371,0.125 -0.65,0.187 -0.837,0.187 -0.324,0 -0.592,-0.084 -0.804,-0.251 -0.213,-0.167 -0.319,-0.382 -0.319,-0.644 0,-0.4 0.179,-0.692 0.536,-0.876 0.357,-0.184 0.739,-0.276 1.148,-0.276 0.838,0 1.53,0.319 2.077,0.955 0.546,0.636 1.118,1.663 1.716,3.079 l 3.444,8.206 c 0.109,0.278 0.238,0.495 0.388,0.651 0.149,0.155 0.373,0.25 0.672,0.284 V 0.276 H 7.303 V 0 L 7.642,-0.02 C 7.846,-0.034 8.014,-0.081 8.145,-0.161 8.276,-0.242 8.341,-0.369 8.341,-0.544 8.341,-0.611 8.318,-0.738 8.27,-0.926 8.223,-1.114 8.188,-1.235 8.167,-1.289 l -2.084,-4.964 -2.53,4.925 c -0.095,0.194 -0.16,0.34 -0.197,0.437 l -0.054,0.287 c 0,0.255 0.167,0.426 0.503,0.513 C 3.979,-0.037 4.249,-0.007 4.613,0 V 0.276 L 0,0.276 Z" /></g><g
           transform="translate(257.6737,86.122)"
           id="g24"><path
             id="path26"
             style="fill:#67111a;fill-opacity:1;fill-rule:nonzero;stroke:none"
             d="m 0,0 v 2.42 l -0.027,0.148 -0.17,0.02 C -1.02,1.591 -1.543,0.976 -1.766,0.743 -1.988,0.51 -2.35,0.207 -2.853,-0.167 -3.028,-0.299 -3.132,-0.382 -3.165,-0.418 l -0.049,-0.153 0.027,-0.078 0.082,-0.059 h 1.192 v -5.963 c 0,-0.663 0.084,-1.181 0.251,-1.555 0.306,-0.688 0.889,-1.033 1.749,-1.033 0.394,0 0.802,0.095 1.225,0.286 0.423,0.19 0.823,0.515 1.202,0.974 l 0.241,0.295 -0.284,0.216 C 2.223,-7.73 2.002,-7.907 1.809,-8.019 1.616,-8.131 1.388,-8.186 1.126,-8.186 c -0.51,0 -0.853,0.226 -1.028,0.679 -0.094,0.256 -0.142,0.633 -0.142,1.131 l 0.022,5.668 h 2.23 l 0,0.708 z" /></g><g
           transform="translate(248.1753,77.0503)"
           id="g28"><path
             id="path30"
             style="fill:#67111a;fill-opacity:1;fill-rule:nonzero;stroke:none"
             d="M 0,0 H 5.313 V 0.275 C 4.606,0.328 4.152,0.449 3.952,0.64 3.752,0.83 3.651,1.299 3.651,2.047 V 9.111 L 3.63,9.259 C 3.571,9.259 3.44,9.219 3.236,9.141 2.733,8.95 1.844,8.668 0.569,8.294 L 0.098,8.157 V 7.852 C 0.463,7.943 0.683,7.996 0.76,8.009 l 0.235,0.02 c 0.35,0 0.579,-0.135 0.689,-0.404 C 1.749,7.461 1.782,7.166 1.782,6.74 V 2.047 C 1.782,1.279 1.68,0.808 1.476,0.635 1.272,0.461 0.78,0.341 0,0.275 Z" /></g><g
           transform="translate(249.5857,89.7576)"
           id="g32"><path
             id="path34"
             style="fill:#67111a;fill-opacity:1;fill-rule:nonzero;stroke:none"
             d="m 0,0 c 0,-0.281 0.109,-0.521 0.328,-0.72 0.219,-0.199 0.488,-0.298 0.809,-0.298 0.313,0 0.581,0.099 0.803,0.298 C 2.163,-0.521 2.274,-0.281 2.274,0 2.274,0.287 2.163,0.53 1.94,0.73 1.718,0.929 1.45,1.028 1.137,1.028 0.816,1.028 0.547,0.927 0.328,0.725 0.109,0.522 0,0.281 0,0" /></g><g
           transform="translate(241.7489,77.0503)"
           id="g36"><path
             id="path38"
             style="fill:#67111a;fill-opacity:1;fill-rule:nonzero;stroke:none"
             d="M 0,0 H 5.291 V 0.275 C 4.606,0.321 4.154,0.428 3.936,0.595 3.717,0.762 3.608,1.132 3.608,1.702 v 11.797 c 0,0.132 -0.006,0.217 -0.017,0.256 L 3.498,13.814 C 2.114,13.421 0.929,13.106 -0.055,12.87 v -0.325 c 0.182,0.039 0.334,0.069 0.454,0.089 l 0.333,0.029 c 0.445,0 0.74,-0.138 0.886,-0.413 0.08,-0.164 0.12,-0.463 0.12,-0.896 V 1.742 C 1.738,1.197 1.618,0.831 1.378,0.644 1.137,0.457 0.678,0.335 0,0.275 Z" /></g><g
           transform="translate(228.1642,86.122)"
           id="g40"><path
             id="path42"
             style="fill:#67111a;fill-opacity:1;fill-rule:nonzero;stroke:none"
             d="m 0,0 v 2.42 l -0.027,0.148 -0.17,0.02 C -1.02,1.591 -1.543,0.976 -1.766,0.743 -1.988,0.51 -2.35,0.207 -2.853,-0.167 -3.028,-0.299 -3.132,-0.382 -3.165,-0.418 l -0.049,-0.153 0.027,-0.078 0.082,-0.059 h 1.192 v -5.963 c 0,-0.663 0.084,-1.181 0.251,-1.555 0.306,-0.688 0.889,-1.033 1.749,-1.033 0.394,0 0.802,0.095 1.225,0.286 0.423,0.19 0.823,0.515 1.202,0.974 l 0.241,0.295 -0.284,0.216 C 2.223,-7.73 2.002,-7.907 1.809,-8.019 1.616,-8.131 1.388,-8.186 1.126,-8.186 c -0.51,0 -0.853,0.226 -1.028,0.679 -0.094,0.256 -0.142,0.633 -0.142,1.131 l 0.022,5.668 h 2.23 l 0,0.708 z" /></g><g
           transform="translate(218.6658,77.0503)"
           id="g44"><path
             id="path46"
             style="fill:#67111a;fill-opacity:1;fill-rule:nonzero;stroke:none"
             d="M 0,0 H 5.313 V 0.275 C 4.606,0.328 4.152,0.449 3.952,0.64 3.752,0.83 3.651,1.299 3.651,2.047 V 9.111 L 3.63,9.259 C 3.571,9.259 3.44,9.219 3.236,9.141 2.733,8.95 1.844,8.668 0.569,8.294 L 0.098,8.157 V 7.852 C 0.463,7.943 0.683,7.996 0.76,8.009 l 0.235,0.02 c 0.35,0 0.579,-0.135 0.689,-0.404 C 1.749,7.461 1.782,7.166 1.782,6.74 V 2.047 C 1.782,1.279 1.68,0.808 1.476,0.635 1.272,0.461 0.78,0.341 0,0.275 Z" /></g><g
           transform="translate(220.0761,89.7576)"
           id="g48"><path
             id="path50"
             style="fill:#67111a;fill-opacity:1;fill-rule:nonzero;stroke:none"
             d="m 0,0 c 0,-0.281 0.109,-0.521 0.328,-0.72 0.219,-0.199 0.488,-0.298 0.809,-0.298 0.313,0 0.581,0.099 0.803,0.298 C 2.163,-0.521 2.274,-0.281 2.274,0 2.274,0.287 2.163,0.53 1.94,0.73 1.718,0.929 1.45,1.028 1.137,1.028 0.816,1.028 0.547,0.927 0.328,0.725 0.109,0.522 0,0.281 0,0" /></g><g
           transform="translate(199.0459,76.9716)"
           id="g52"><path
             id="path54"
             style="fill:#67111a;fill-opacity:1;fill-rule:nonzero;stroke:none"
             d="m 0,0 h 0.284 l 0.153,0.202 0.229,0.083 c 0.102,0 0.43,-0.065 0.982,-0.196 0.553,-0.132 1.048,-0.197 1.485,-0.197 1.04,0 1.882,0.246 2.526,0.738 0.644,0.492 0.966,1.125 0.966,1.899 0,1.01 -0.776,1.895 -2.329,2.656 L 2.853,5.884 C 1.848,6.356 1.345,6.894 1.345,7.497 1.345,7.878 1.49,8.209 1.782,8.491 2.073,8.773 2.474,8.914 2.985,8.914 3.837,8.914 4.489,8.586 4.941,7.93 5.189,7.576 5.386,7.081 5.532,6.445 H 5.871 L 5.794,9.19 H 5.532 L 5.379,9.032 C 5.32,9 5.226,8.983 5.095,8.983 5.036,8.983 4.776,9.049 4.313,9.18 3.85,9.311 3.425,9.377 3.039,9.377 2.157,9.377 1.425,9.141 0.842,8.668 0.259,8.196 -0.033,7.592 -0.033,6.858 -0.033,6.261 0.179,5.743 0.602,5.303 1.025,4.864 1.684,4.428 2.581,3.995 L 3.805,3.365 C 4.264,3.122 4.584,2.873 4.767,2.617 4.949,2.361 5.04,2.096 5.04,1.82 5.04,1.387 4.882,1.035 4.565,0.763 4.249,0.49 3.818,0.354 3.273,0.354 2.291,0.354 1.546,0.722 1.037,1.456 0.754,1.856 0.528,2.43 0.361,3.178 H 0 Z" /></g><g
           transform="translate(170.429,77.0503)"
           id="g56"><path
             id="path58"
             style="fill:#67111a;fill-opacity:1;fill-rule:nonzero;stroke:none"
             d="M 0,0 H 6.21 V 0.374 C 5.391,0.433 4.858,0.566 4.611,0.775 4.365,0.984 4.242,1.454 4.242,2.184 v 4.152 h 6.8 V 2.42 C 11.042,1.552 10.934,1.014 10.719,0.805 10.504,0.596 9.956,0.452 9.074,0.374 V 0 h 6.21 v 0.374 c -0.824,0.065 -1.358,0.2 -1.602,0.406 -0.244,0.205 -0.366,0.674 -0.366,1.404 v 8.964 c 0,0.721 0.122,1.19 0.366,1.407 0.244,0.216 0.778,0.351 1.602,0.403 v 0.374 h -6.21 v -0.374 c 0.831,-0.052 1.366,-0.187 1.607,-0.403 0.241,-0.217 0.361,-0.686 0.361,-1.407 V 7.222 h -6.8 v 3.926 c 0,0.721 0.123,1.19 0.369,1.407 0.247,0.216 0.78,0.351 1.599,0.403 v 0.374 H 0 V 12.958 C 0.824,12.906 1.357,12.771 1.602,12.555 1.846,12.338 1.968,11.869 1.968,11.148 V 2.42 C 1.968,1.552 1.858,1.015 1.64,0.81 1.421,0.604 0.875,0.459 0,0.374 Z" /></g><g
           transform="translate(157.0047,77.0503)"
           id="g60"><path
             id="path62"
             style="fill:#67111a;fill-opacity:1;fill-rule:nonzero;stroke:none"
             d="M 0,0 H 5.838 V 0.275 C 4.898,0.335 4.316,0.467 4.094,0.674 3.872,0.881 3.761,1.354 3.761,2.096 v 6.316 h 2.722 v 0.66 H 3.761 v 2.332 c 0,0.426 0.054,0.77 0.163,1.033 0.196,0.492 0.569,0.738 1.12,0.738 0.247,0 0.439,-0.048 0.577,-0.143 0.138,-0.095 0.257,-0.212 0.359,-0.349 l 0.185,-0.256 c 0.21,-0.289 0.391,-0.49 0.544,-0.605 0.152,-0.115 0.333,-0.172 0.544,-0.172 0.246,0 0.456,0.085 0.63,0.255 0.175,0.171 0.262,0.365 0.262,0.581 0,0.387 -0.254,0.695 -0.761,0.925 C 6.876,13.64 6.301,13.755 5.659,13.755 4.06,13.755 2.961,13.07 2.362,11.699 2.048,10.984 1.891,10.108 1.891,9.072 H 0.022 V 8.412 H 1.891 V 2.096 C 1.891,1.368 1.769,0.89 1.525,0.664 1.281,0.438 0.772,0.308 0,0.275 Z" /></g><g
           transform="translate(133.3383,77.0503)"
           id="g64"><path
             id="path66"
             style="fill:#67111a;fill-opacity:1;fill-rule:nonzero;stroke:none"
             d="M 0,0 H 5.291 V 0.275 C 4.606,0.321 4.154,0.428 3.936,0.595 3.717,0.762 3.608,1.132 3.608,1.702 v 11.797 c 0,0.132 -0.006,0.217 -0.017,0.256 L 3.498,13.814 C 2.114,13.421 0.929,13.106 -0.055,12.87 v -0.325 c 0.182,0.039 0.334,0.069 0.454,0.089 l 0.333,0.029 c 0.445,0 0.74,-0.138 0.886,-0.413 0.08,-0.164 0.12,-0.463 0.12,-0.896 V 1.742 C 1.738,1.197 1.618,0.831 1.378,0.644 1.137,0.457 0.678,0.335 0,0.275 Z" /></g><g
           transform="translate(237.5423,79.3822)"
           id="g68"><path
             id="path70"
             style="fill:#67111a;fill-opacity:1;fill-rule:nonzero;stroke:none"
             d="m 0,0 c 0,-0.374 -0.221,-0.682 -0.661,-0.925 -0.441,-0.243 -0.902,-0.364 -1.383,-0.364 -0.35,0 -0.667,0.092 -0.952,0.276 -0.437,0.282 -0.655,0.721 -0.655,1.318 0,0.741 0.524,1.404 1.574,1.988 C -1.531,2.594 -0.838,2.87 0,3.119 Z M 2.908,-1.269 C 2.799,-1.315 2.66,-1.338 2.493,-1.338 c -0.299,0 -0.496,0.128 -0.591,0.384 -0.058,0.144 -0.087,0.406 -0.087,0.787 v 3.945 c 0,0.866 -0.135,1.525 -0.405,1.978 -0.503,0.826 -1.461,1.24 -2.875,1.24 -1.217,0 -2.141,-0.251 -2.771,-0.753 -0.631,-0.502 -0.946,-0.982 -0.946,-1.441 0,-0.237 0.087,-0.452 0.262,-0.645 0.175,-0.193 0.427,-0.29 0.755,-0.29 0.211,0 0.393,0.042 0.546,0.128 0.27,0.144 0.405,0.4 0.405,0.767 0,0.053 -0.018,0.172 -0.055,0.359 -0.036,0.187 -0.054,0.32 -0.054,0.399 0,0.308 0.167,0.551 0.502,0.728 0.336,0.17 0.689,0.256 1.061,0.256 0.78,0 1.293,-0.22 1.541,-0.66 C -0.073,5.582 0,5.116 0,4.447 V 3.611 C -2.004,2.935 -3.342,2.401 -4.012,2.007 -5.069,1.371 -5.597,0.577 -5.597,-0.374 c 0,-0.61 0.229,-1.113 0.688,-1.51 0.46,-0.397 1.002,-0.595 1.629,-0.595 0.598,0 1.228,0.177 1.892,0.531 0.393,0.21 0.867,0.531 1.421,0.964 0.022,-0.4 0.144,-0.745 0.366,-1.033 0.222,-0.289 0.581,-0.433 1.077,-0.433 0.422,0 0.838,0.125 1.246,0.374 0.27,0.164 0.521,0.374 0.754,0.63 v 0.511 C 3.207,-1.112 3.017,-1.223 2.908,-1.269" /></g><g
           transform="translate(214.5772,78.5986)"
           id="g72"><path
             id="path74"
             style="fill:#67111a;fill-opacity:1;fill-rule:nonzero;stroke:none"
             d="m 0,0 c -0.557,-0.704 -1.23,-1.056 -2.017,-1.056 -0.51,0 -0.953,0.109 -1.328,0.329 -0.376,0.219 -0.658,0.552 -0.848,0.997 v 4.943 c 0,0.288 0.223,0.581 0.667,0.879 0.445,0.298 0.937,0.447 1.476,0.447 0.765,0 1.438,-0.298 2.017,-0.894 C 0.547,5.049 0.836,4.148 0.836,2.943 0.836,1.685 0.558,0.704 0,0 M -0.935,7.75 C -1.627,7.75 -2.301,7.566 -2.957,7.199 -3.322,6.989 -3.744,6.668 -4.225,6.235 V 7.563 L -4.253,7.666 -4.335,7.71 C -5.763,7.264 -6.496,7.038 -6.532,7.031 L -7.571,6.727 V 6.402 c 0.132,0.019 0.232,0.033 0.301,0.039 l 0.224,0.01 c 0.372,0 0.625,-0.071 0.76,-0.212 0.135,-0.141 0.202,-0.46 0.202,-0.959 v -9.446 c 0,-0.478 -0.092,-0.829 -0.277,-1.052 -0.184,-0.223 -0.617,-0.355 -1.297,-0.394 v -0.325 h 5.4 v 0.345 c -0.808,0.052 -1.333,0.154 -1.574,0.305 -0.24,0.151 -0.361,0.557 -0.361,1.22 v 3.227 c 0.394,-0.367 0.824,-0.62 1.29,-0.758 0.299,-0.091 0.653,-0.137 1.061,-0.137 1.319,0 2.414,0.534 3.285,1.602 0.871,1.068 1.307,2.257 1.307,3.568 0,1.337 -0.363,2.39 -1.088,3.16 C 0.936,7.365 0.071,7.75 -0.935,7.75" /></g><g
           transform="translate(194.2785,78.3195)"
           id="g76"><path
             id="path78"
             style="fill:#67111a;fill-opacity:1;fill-rule:nonzero;stroke:none"
             d="m 0,0 c -0.442,-0.676 -1.072,-1.013 -1.889,-1.013 -1.045,0 -1.861,0.505 -2.448,1.515 -0.588,1.01 -0.882,2.099 -0.882,3.266 0,1.463 0.365,2.493 1.095,3.09 0.424,0.341 0.924,0.512 1.501,0.512 1.066,0 1.88,-0.502 2.442,-1.506 C 0.381,4.861 0.663,3.791 0.663,2.657 0.663,1.561 0.442,0.676 0,0 M -2.311,7.96 C -3.762,7.96 -4.948,7.509 -5.87,6.607 -6.792,5.705 -7.253,4.601 -7.253,3.296 c 0,-1.397 0.485,-2.558 1.454,-3.483 0.97,-0.925 2.154,-1.387 3.554,-1.387 1.457,0 2.645,0.482 3.564,1.446 0.918,0.964 1.377,2.099 1.377,3.404 0,1.417 -0.474,2.552 -1.421,3.405 C 0.327,7.534 -0.868,7.96 -2.311,7.96" /></g><g
           transform="translate(152.9697,78.3195)"
           id="g80"><path
             id="path82"
             style="fill:#67111a;fill-opacity:1;fill-rule:nonzero;stroke:none"
             d="m 0,0 c -0.442,-0.676 -1.072,-1.013 -1.889,-1.013 -1.045,0 -1.861,0.505 -2.448,1.515 -0.588,1.01 -0.882,2.099 -0.882,3.266 0,1.463 0.365,2.493 1.095,3.09 0.424,0.341 0.924,0.512 1.501,0.512 1.066,0 1.88,-0.502 2.442,-1.506 C 0.381,4.861 0.663,3.791 0.663,2.657 0.663,1.561 0.442,0.676 0,0 m -2.311,7.96 c -1.45,0 -2.637,-0.451 -3.558,-1.353 -0.923,-0.902 -1.383,-2.006 -1.383,-3.311 0,-1.397 0.484,-2.558 1.454,-3.483 0.969,-0.925 2.153,-1.387 3.553,-1.387 1.457,0 2.645,0.482 3.564,1.446 0.918,0.964 1.377,2.099 1.377,3.404 0,1.417 -0.474,2.552 -1.421,3.405 C 0.327,7.534 -0.868,7.96 -2.311,7.96" /></g><g
           transform="translate(129.2815,78.3195)"
           id="g84"><path
             id="path86"
             style="fill:#67111a;fill-opacity:1;fill-rule:nonzero;stroke:none"
             d="m 0,0 c -0.442,-0.676 -1.072,-1.013 -1.889,-1.013 -1.045,0 -1.861,0.505 -2.448,1.515 -0.588,1.01 -0.882,2.099 -0.882,3.266 0,1.463 0.365,2.493 1.095,3.09 0.424,0.341 0.924,0.512 1.501,0.512 1.066,0 1.88,-0.502 2.442,-1.506 C 0.381,4.861 0.663,3.791 0.663,2.657 0.663,1.561 0.442,0.676 0,0 m -2.311,7.96 c -1.45,0 -2.637,-0.451 -3.559,-1.353 -0.922,-0.902 -1.383,-2.006 -1.383,-3.311 0,-1.397 0.485,-2.558 1.454,-3.483 0.97,-0.925 2.154,-1.387 3.554,-1.387 1.457,0 2.645,0.482 3.564,1.446 0.918,0.964 1.377,2.099 1.377,3.404 0,1.417 -0.474,2.552 -1.421,3.405 C 0.327,7.534 -0.868,7.96 -2.311,7.96" /></g><g
           transform="translate(117.8628,78.3195)"
           id="g88"><path
             id="path90"
             style="fill:#67111a;fill-opacity:1;fill-rule:nonzero;stroke:none"
             d="m 0,0 c -0.442,-0.676 -1.072,-1.013 -1.889,-1.013 -1.045,0 -1.861,0.505 -2.448,1.515 -0.588,1.01 -0.882,2.099 -0.882,3.266 0,1.463 0.365,2.493 1.095,3.09 0.424,0.341 0.924,0.512 1.501,0.512 1.066,0 1.88,-0.502 2.442,-1.506 C 0.381,4.861 0.663,3.791 0.663,2.657 0.663,1.561 0.442,0.676 0,0 M -2.311,7.96 C -3.762,7.96 -4.948,7.509 -5.87,6.607 -6.792,5.705 -7.253,4.601 -7.253,3.296 c 0,-1.397 0.485,-2.558 1.454,-3.483 0.97,-0.925 2.154,-1.387 3.554,-1.387 1.457,0 2.645,0.482 3.564,1.446 0.918,0.964 1.377,2.099 1.377,3.404 0,1.417 -0.474,2.552 -1.421,3.405 C 0.327,7.534 -0.868,7.96 -2.311,7.96" /></g><g
           transform="translate(98.8198,77.0503)"
           id="g92"><path
             id="path94"
             style="fill:#67111a;fill-opacity:1;fill-rule:nonzero;stroke:none"
             d="M 0,0 H 4.821 V 0.275 C 4.202,0.354 3.797,0.485 3.608,0.669 3.418,0.853 3.323,1.312 3.323,2.047 v 4.85 c 0,0.112 0.266,0.351 0.799,0.719 0.531,0.367 1.082,0.551 1.65,0.551 0.656,0 1.103,-0.197 1.34,-0.591 C 7.348,7.183 7.467,6.668 7.467,6.031 V 2.047 C 7.467,1.325 7.376,0.869 7.194,0.679 7.011,0.489 6.603,0.354 5.969,0.275 V 0 h 4.734 V 0.275 C 10.149,0.341 9.783,0.479 9.604,0.689 9.425,0.899 9.336,1.351 9.336,2.047 v 4.014 c 0,0.767 -0.116,1.387 -0.35,1.86 C 8.556,8.813 7.751,9.259 6.57,9.259 5.827,9.259 5.135,9.062 4.493,8.668 4.136,8.445 3.728,8.098 3.269,7.625 v 6.042 L 3.247,13.735 2.197,13.44 C 2.015,13.388 1.689,13.301 1.219,13.18 0.749,13.058 0.353,12.955 0.033,12.87 v -0.355 l 0.257,0.035 0.235,0.015 c 0.408,0 0.665,-0.087 0.771,-0.261 0.105,-0.174 0.158,-0.445 0.158,-0.812 V 2.047 C 1.454,1.325 1.361,0.867 1.175,0.674 0.989,0.48 0.598,0.348 0,0.275 Z" /></g><g
           transform="translate(94.0228,86.3287)"
           id="g96"><path
             id="path98"
             style="fill:#67111a;fill-opacity:1;fill-rule:nonzero;stroke:none"
             d="m 0,0 c -1.458,0 -2.664,-0.489 -3.619,-1.466 -0.955,-0.978 -1.432,-2.145 -1.432,-3.503 0,-1.384 0.437,-2.479 1.312,-3.286 0.875,-0.807 1.88,-1.21 3.017,-1.21 1.159,0 2.18,0.44 3.062,1.319 0.459,0.46 0.896,1.084 1.311,1.872 L 3.345,-6.107 C 2.923,-6.665 2.544,-7.073 2.208,-7.329 c -0.59,-0.447 -1.264,-0.67 -2.022,-0.67 -1.072,0 -1.923,0.394 -2.553,1.182 -0.63,0.788 -0.946,1.678 -0.946,2.67 0,1.084 0.286,1.952 0.859,2.606 0.572,0.653 1.273,0.98 2.104,0.98 0.394,0 0.711,-0.069 0.951,-0.206 0.233,-0.145 0.397,-0.391 0.492,-0.738 l 0.131,-0.473 c 0.088,-0.301 0.228,-0.531 0.421,-0.688 0.193,-0.158 0.417,-0.237 0.673,-0.237 0.349,0 0.608,0.094 0.776,0.28 0.167,0.186 0.251,0.387 0.251,0.603 0,0.503 -0.33,0.966 -0.989,1.387 C 1.696,-0.211 0.911,0 0,0" /></g><g
           transform="translate(76.7149,81.104)"
           id="g100"><path
             id="path102"
             style="fill:#67111a;fill-opacity:1;fill-rule:nonzero;stroke:none"
             d="m 0,0 0.667,-4.29 h 0.492 c 0.029,0.164 0.089,0.318 0.18,0.463 0.091,0.144 0.268,0.216 0.53,0.216 0.11,0 0.542,-0.118 1.296,-0.354 0.754,-0.236 1.478,-0.354 2.17,-0.354 1.378,0 2.509,0.354 3.395,1.062 0.885,0.709 1.328,1.591 1.328,2.647 0,0.787 -0.249,1.469 -0.747,2.047 C 8.806,2.007 7.938,2.634 6.708,3.316 L 4.742,4.408 C 4.006,4.815 3.464,5.205 3.115,5.579 2.766,5.946 2.591,6.389 2.591,6.907 2.591,7.484 2.819,7.935 3.274,8.26 3.73,8.585 4.264,8.747 4.876,8.747 5.663,8.747 6.459,8.491 7.265,7.98 8.07,7.468 8.655,6.566 9.019,5.274 H 9.555 L 9.063,9.564 H 8.604 C 8.545,9.347 8.463,9.18 8.358,9.062 8.252,8.944 8.061,8.885 7.784,8.885 7.682,8.885 7.272,8.998 6.554,9.224 5.836,9.451 5.222,9.564 4.712,9.564 3.473,9.564 2.478,9.226 1.727,8.55 0.977,7.875 0.601,7.028 0.601,6.012 0.601,5.244 0.918,4.542 1.552,3.906 1.895,3.572 2.354,3.24 2.928,2.912 L 4.838,1.84 c 1.098,-0.617 1.818,-1.079 2.16,-1.387 0.524,-0.486 0.786,-1.057 0.786,-1.712 0,-0.729 -0.26,-1.296 -0.781,-1.703 -0.52,-0.406 -1.137,-0.61 -1.85,-0.61 -1.317,0 -2.42,0.469 -3.307,1.407 C 1.336,-1.627 0.892,-0.905 0.514,0 Z" /></g><g
           transform="translate(53.9359,77.0503)"
           id="g104"><path
             id="path106"
             style="fill:#67111a;fill-opacity:1;fill-rule:nonzero;stroke:none"
             d="M 0,0 H 6.21 V 0.374 C 5.391,0.433 4.858,0.566 4.611,0.775 4.365,0.984 4.242,1.454 4.242,2.184 v 4.152 h 6.8 V 2.42 C 11.042,1.552 10.934,1.014 10.719,0.805 10.504,0.596 9.956,0.452 9.074,0.374 V 0 h 6.21 v 0.374 c -0.824,0.065 -1.358,0.2 -1.602,0.406 -0.244,0.205 -0.366,0.674 -0.366,1.404 v 8.964 c 0,0.721 0.122,1.19 0.366,1.407 0.244,0.216 0.778,0.351 1.602,0.403 v 0.374 h -6.21 v -0.374 c 0.831,-0.052 1.366,-0.187 1.607,-0.403 0.241,-0.217 0.361,-0.686 0.361,-1.407 V 7.222 h -6.8 v 3.926 c 0,0.721 0.123,1.19 0.369,1.407 0.247,0.216 0.78,0.351 1.599,0.403 v 0.374 H 0 V 12.958 C 0.824,12.906 1.357,12.771 1.602,12.555 1.846,12.338 1.968,11.869 1.968,11.148 V 2.42 C 1.968,1.552 1.858,1.015 1.64,0.81 1.421,0.604 0.875,0.459 0,0.374 Z" /></g><g
           transform="translate(47.9502,78.3786)"
           id="g108"><path
             id="path110"
             style="fill:#67111a;fill-opacity:1;fill-rule:nonzero;stroke:none"
             d="m 0,0 c -0.773,-0.4 -1.731,-0.6 -2.875,-0.6 -0.795,0 -1.301,0.051 -1.52,0.152 -0.218,0.102 -0.328,0.327 -0.328,0.674 v 5.018 c 0.19,-0.006 0.33,-0.01 0.421,-0.01 h 0.651 c 1.399,0 2.55,-0.206 3.454,-0.619 C 0.707,4.201 1.159,3.43 1.159,2.302 1.159,1.167 0.772,0.4 0,0 m -4.723,10.556 c 0,0.322 0.055,0.519 0.164,0.591 0.11,0.073 0.397,0.109 0.864,0.109 1.231,0 2.15,-0.115 2.755,-0.345 C 0.153,10.49 0.7,9.679 0.7,8.476 0.7,7.457 0.226,6.751 -0.722,6.357 -1.217,6.153 -1.84,6.044 -2.591,6.031 L -4.723,6.002 Z M 2.635,4.566 C 1.906,5.087 1.028,5.458 0,5.681 c 0.831,0.184 1.454,0.417 1.87,0.7 0.736,0.492 1.104,1.214 1.104,2.166 0,1.267 -0.526,2.16 -1.579,2.679 -1.052,0.518 -2.474,0.778 -4.265,0.778 H -9.139 V 11.63 c 0.899,-0.039 1.481,-0.166 1.745,-0.379 0.265,-0.213 0.397,-0.69 0.397,-1.431 V 0.856 c 0,-0.75 -0.132,-1.228 -0.397,-1.434 -0.264,-0.205 -0.846,-0.331 -1.745,-0.376 v -0.374 h 7.296 c 1.245,0 2.294,0.154 3.146,0.462 1.617,0.59 2.425,1.671 2.425,3.244 0,0.937 -0.365,1.666 -1.093,2.188" /></g><g
           transform="translate(29.7131,78.2114)"
           id="g112"><path
             id="path114"
             style="fill:#67111a;fill-opacity:1;fill-rule:nonzero;stroke:none"
             d="m 0,0 c 0,-0.354 0.195,-0.676 0.585,-0.964 0.39,-0.289 0.935,-0.433 1.634,-0.433 1.064,0 1.957,0.328 2.679,0.984 0.721,0.649 1.082,1.649 1.082,3.001 v 7.399 c 0,0.695 0.129,1.159 0.388,1.392 0.259,0.233 0.822,0.372 1.689,0.418 v 0.374 H 1.629 V 11.797 C 2.474,11.758 3.032,11.633 3.302,11.423 3.571,11.213 3.706,10.735 3.706,9.987 V 0.874 C 3.706,0.304 3.65,-0.096 3.537,-0.325 3.424,-0.554 3.221,-0.669 2.93,-0.669 2.66,-0.669 2.405,-0.39 2.165,0.167 1.924,0.725 1.552,1.004 1.049,1.004 0.794,1.004 0.556,0.926 0.333,0.772 0.111,0.618 0,0.361 0,0" /></g><g
           transform="translate(81.222,66.7541)"
           id="g116"><path
             id="path118"
             style="fill:#67111a;fill-opacity:1;fill-rule:nonzero;stroke:none"
             d="m 0,0 c -0.269,0.512 -0.488,1.009 -0.656,1.491 -0.168,0.482 -0.252,0.929 -0.252,1.343 0,0.531 0.151,0.957 0.453,1.279 0.303,0.321 0.731,0.482 1.285,0.482 0.51,0 0.931,-0.158 1.263,-0.472 C 2.424,3.808 2.59,3.394 2.59,2.883 2.59,2.201 2.265,1.577 1.615,1.013 1.253,0.699 0.715,0.361 0,0 m -1.3,-7.576 c -0.852,0 -1.551,0.274 -2.094,0.821 -0.544,0.548 -0.816,1.196 -0.816,1.944 0,0.813 0.308,1.528 0.925,2.145 0.404,0.4 0.985,0.8 1.741,1.2 C -0.72,-2.804 -0.116,-3.742 0.27,-4.28 0.656,-4.818 1.195,-5.48 1.886,-6.268 1.349,-6.72 0.787,-7.052 0.199,-7.261 -0.389,-7.471 -0.888,-7.576 -1.3,-7.576 m -1.442,6.366 c -1.127,-0.571 -2.003,-1.202 -2.629,-1.894 -0.625,-0.692 -0.938,-1.494 -0.938,-2.406 0,-0.971 0.35,-1.737 1.051,-2.297 0.7,-0.561 1.637,-0.842 2.811,-0.842 1.056,0 2.024,0.197 2.904,0.591 0.675,0.288 1.342,0.705 2.002,1.249 0.699,-0.597 1.258,-1.013 1.677,-1.249 0.699,-0.4 1.405,-0.601 2.118,-0.601 0.287,0 0.581,0.04 0.883,0.119 0.507,0.124 0.952,0.337 1.334,0.639 0.243,0.19 0.497,0.454 0.762,0.792 0.265,0.338 0.419,0.586 0.463,0.743 L 9.368,-6.13 C 9.022,-6.504 8.746,-6.756 8.54,-6.887 8.202,-7.098 7.789,-7.202 7.304,-7.202 c -0.817,0 -1.634,0.311 -2.451,0.934 -0.375,0.315 -0.71,0.627 -1.005,0.935 0.552,0.623 0.965,1.112 1.241,1.466 0.276,0.354 0.619,0.866 1.031,1.535 l 0.573,0.935 c 0.28,0.459 0.618,0.777 1.015,0.954 0.242,0.105 0.61,0.184 1.103,0.236 V 0.216 H 3.951 V -0.207 C 4.418,-0.24 4.747,-0.299 4.936,-0.384 5.235,-0.521 5.384,-0.774 5.384,-1.141 5.384,-1.502 5.235,-1.984 4.936,-2.588 4.637,-3.191 4.098,-3.919 3.319,-4.772 2.591,-3.926 2.075,-3.286 1.77,-2.853 1.465,-2.42 0.989,-1.679 0.342,-0.63 1.178,-0.295 1.961,0.148 2.689,0.699 3.417,1.25 3.782,1.958 3.782,2.824 3.782,3.565 3.494,4.155 2.919,4.595 2.344,5.034 1.61,5.254 0.715,5.254 c -0.983,0 -1.794,-0.311 -2.434,-0.935 -0.64,-0.623 -0.96,-1.407 -0.96,-2.351 0,-0.204 0.018,-0.412 0.055,-0.625 0.036,-0.213 0.084,-0.425 0.143,-0.635 0.051,-0.19 0.14,-0.439 0.265,-0.747 0.125,-0.309 0.235,-0.551 0.331,-0.729 z m 27.288,6.415 c -2.325,0 -4.213,-0.699 -5.663,-2.096 -1.378,-1.331 -2.067,-2.978 -2.067,-4.939 0,-1.916 0.653,-3.513 1.957,-4.792 1.414,-1.384 3.324,-2.076 5.729,-2.076 1.465,0 2.824,0.361 4.078,1.082 0.736,0.427 1.352,0.922 1.847,1.486 l -0.415,0.374 c -0.671,-0.571 -1.287,-0.997 -1.848,-1.279 -0.976,-0.499 -2.044,-0.748 -3.203,-0.748 -1.603,0 -2.928,0.536 -3.974,1.609 -1.046,1.072 -1.569,2.507 -1.569,4.305 0,1.954 0.498,3.489 1.493,4.604 0.994,1.115 2.275,1.673 3.842,1.673 1.553,0 2.788,-0.518 3.706,-1.555 0.481,-0.551 0.871,-1.276 1.17,-2.174 h 0.514 l -0.208,4.526 h -0.47 C 29.392,4.982 29.261,4.818 29.072,4.713 28.882,4.608 28.682,4.556 28.47,4.556 c -0.102,0 -0.579,0.108 -1.432,0.324 -0.853,0.217 -1.683,0.325 -2.492,0.325 M 31.614,0.748 V 0.472 c 0.524,-0.045 0.867,-0.123 1.027,-0.234 0.248,-0.176 0.372,-0.524 0.372,-1.045 V -5.92 c 0,-0.946 0.284,-1.619 0.853,-2.02 0.561,-0.407 1.158,-0.61 1.793,-0.61 0.692,0 1.348,0.197 1.967,0.59 0.408,0.256 0.86,0.649 1.356,1.181 v -1.584 l 0.011,-0.104 0.066,-0.044 c 0.641,0.223 1.056,0.364 1.246,0.423 0.444,0.131 0.761,0.221 0.951,0.271 0.189,0.049 0.485,0.123 0.886,0.221 v 0.276 c -0.576,-0.02 -0.954,0.054 -1.132,0.221 -0.179,0.167 -0.268,0.474 -0.268,0.92 V 0.748 H 37.211 V 0.423 c 0.656,-0.033 1.093,-0.128 1.312,-0.285 0.219,-0.158 0.328,-0.489 0.328,-0.994 V -6.248 C 38.574,-6.537 38.3,-6.763 38.031,-6.927 37.557,-7.222 37.072,-7.37 36.577,-7.37 c -0.722,0 -1.217,0.25 -1.487,0.748 -0.138,0.269 -0.208,0.627 -0.208,1.073 v 6.297 z m 11.681,-9.111 h 5.291 v 0.275 c -0.685,0.046 -1.137,0.153 -1.356,0.32 -0.218,0.167 -0.328,0.536 -0.328,1.107 V 5.136 c 0,0.131 -0.005,0.217 -0.016,0.256 L 46.793,5.451 C 45.408,5.057 44.224,4.742 43.24,4.506 V 4.182 c 0.182,0.039 0.333,0.068 0.454,0.088 l 0.333,0.03 c 0.445,0 0.74,-0.138 0.886,-0.414 0.08,-0.164 0.12,-0.462 0.12,-0.895 v -9.613 c 0,-0.544 -0.12,-0.91 -0.361,-1.097 -0.24,-0.187 -0.7,-0.31 -1.377,-0.369 z m 7.836,12.707 c 0,-0.281 0.11,-0.521 0.328,-0.72 0.219,-0.199 0.488,-0.298 0.809,-0.298 0.314,0 0.581,0.099 0.804,0.298 0.222,0.199 0.333,0.439 0.333,0.72 0,0.287 -0.111,0.53 -0.333,0.73 -0.223,0.199 -0.49,0.298 -0.804,0.298 -0.321,0 -0.59,-0.101 -0.809,-0.303 C 51.241,4.866 51.131,4.625 51.131,4.344 m -1.41,-12.707 h 5.313 v 0.275 c -0.707,0.053 -1.161,0.174 -1.361,0.364 -0.201,0.19 -0.301,0.659 -0.301,1.407 v 7.065 l -0.021,0.147 c -0.059,0 -0.19,-0.039 -0.394,-0.118 -0.503,-0.19 -1.392,-0.472 -2.668,-0.846 l -0.47,-0.138 v -0.305 c 0.365,0.092 0.585,0.145 0.662,0.158 l 0.235,0.019 c 0.35,0 0.579,-0.134 0.689,-0.403 0.065,-0.164 0.098,-0.459 0.098,-0.885 v -4.694 c 0,-0.767 -0.102,-1.238 -0.306,-1.412 -0.204,-0.174 -0.696,-0.293 -1.476,-0.359 z m 6.415,0 h 4.778 v 0.275 c -0.503,0.013 -0.871,0.1 -1.104,0.261 -0.234,0.161 -0.35,0.477 -0.35,0.949 v 5.51 c 0.391,0.348 0.71,0.597 0.957,0.748 0.442,0.262 0.876,0.394 1.304,0.394 0.623,0 1.051,-0.186 1.283,-0.556 0.232,-0.371 0.348,-0.838 0.348,-1.402 v -4.202 c 0,-0.669 -0.106,-1.103 -0.317,-1.303 -0.212,-0.201 -0.583,-0.333 -1.115,-0.399 v -0.275 h 4.668 v 0.275 c -0.492,0.007 -0.843,0.115 -1.052,0.325 -0.21,0.21 -0.315,0.551 -0.315,1.023 v 4.595 c 0,1.279 -0.393,2.168 -1.178,2.666 -0.408,0.256 -0.859,0.384 -1.353,0.384 -0.611,0 -1.201,-0.161 -1.768,-0.482 -0.378,-0.21 -0.902,-0.597 -1.571,-1.161 V 0.708 L 59.334,0.846 59.241,0.895 58.214,0.59 C 57.098,0.262 56.391,0.059 56.093,-0.02 v -0.344 l 0.257,0.029 0.202,0.01 c 0.43,0 0.714,-0.123 0.853,-0.371 0.087,-0.169 0.131,-0.462 0.131,-0.878 v -4.999 c 0,-0.603 -0.104,-0.992 -0.312,-1.166 -0.208,-0.173 -0.57,-0.29 -1.088,-0.349 z m 17.432,2.332 c 0,-0.374 -0.221,-0.683 -0.661,-0.925 -0.442,-0.243 -0.902,-0.364 -1.383,-0.364 -0.35,0 -0.667,0.091 -0.952,0.275 -0.437,0.282 -0.655,0.722 -0.655,1.319 0,0.741 0.524,1.403 1.574,1.987 0.546,0.302 1.239,0.577 2.077,0.827 z m -5.597,-0.374 c 0,-0.61 0.229,-1.114 0.688,-1.511 0.459,-0.397 1.002,-0.595 1.629,-0.595 0.598,0 1.228,0.177 1.892,0.531 0.393,0.21 0.867,0.532 1.421,0.965 0.022,-0.401 0.144,-0.745 0.366,-1.034 0.222,-0.288 0.581,-0.432 1.077,-0.432 0.422,0 0.838,0.124 1.246,0.373 0.27,0.164 0.521,0.374 0.754,0.63 v 0.512 c -0.269,-0.177 -0.459,-0.289 -0.568,-0.335 -0.109,-0.046 -0.248,-0.069 -0.415,-0.069 -0.299,0 -0.496,0.128 -0.591,0.384 -0.058,0.144 -0.087,0.407 -0.087,0.787 v 3.946 c 0,0.866 -0.135,1.525 -0.405,1.977 -0.503,0.827 -1.461,1.24 -2.875,1.24 -1.217,0 -2.141,-0.251 -2.771,-0.752 -0.631,-0.502 -0.946,-0.983 -0.946,-1.442 0,-0.236 0.087,-0.451 0.262,-0.644 0.175,-0.194 0.427,-0.291 0.755,-0.291 0.211,0 0.393,0.043 0.546,0.128 0.27,0.145 0.405,0.4 0.405,0.768 0,0.052 -0.018,0.172 -0.055,0.359 -0.036,0.187 -0.055,0.32 -0.055,0.398 0,0.309 0.168,0.551 0.503,0.728 0.336,0.171 0.689,0.256 1.061,0.256 0.78,0 1.293,-0.22 1.541,-0.659 0.146,-0.262 0.219,-0.728 0.219,-1.397 V -2.42 c -2.004,-0.676 -3.342,-1.211 -4.012,-1.604 -1.057,-0.637 -1.585,-1.43 -1.585,-2.381 m 9.443,-1.958 h 5.39 v 0.324 c -0.678,-0.013 -1.163,0.09 -1.454,0.31 -0.292,0.22 -0.438,0.612 -0.438,1.176 v 4.438 c 0,0.393 0.186,0.775 0.558,1.146 0.372,0.37 0.685,0.556 0.94,0.556 0.16,0 0.381,-0.115 0.661,-0.345 0.281,-0.229 0.56,-0.344 0.837,-0.344 0.269,0 0.493,0.092 0.672,0.275 0.179,0.184 0.268,0.41 0.268,0.679 0,0.302 -0.117,0.553 -0.351,0.753 -0.234,0.2 -0.537,0.3 -0.91,0.3 -0.468,0 -0.919,-0.164 -1.354,-0.492 C 81.798,0.085 81.347,-0.371 80.88,-0.954 V 0.659 L 80.863,0.866 80.771,0.915 C 80.385,0.758 80.011,0.617 79.648,0.492 79.481,0.433 79.179,0.335 78.744,0.197 78.308,0.059 77.883,-0.076 77.469,-0.207 v -0.324 c 0.131,0.026 0.257,0.047 0.377,0.064 l 0.289,0.024 c 0.357,0 0.603,-0.139 0.738,-0.418 0.135,-0.279 0.203,-0.743 0.203,-1.392 v -4.438 c 0,-0.525 -0.11,-0.867 -0.328,-1.028 -0.219,-0.161 -0.664,-0.267 -1.334,-0.32 z m 7.887,8.766 c 0.364,-0.046 0.64,-0.146 0.826,-0.3 0.185,-0.154 0.402,-0.474 0.65,-0.959 l 3.445,-6.705 0.073,-0.224 0.031,-0.214 c 0,-0.285 -0.223,-0.873 -0.669,-1.764 -0.447,-0.89 -0.871,-1.336 -1.274,-1.336 -0.159,0 -0.423,0.063 -0.794,0.187 -0.371,0.125 -0.65,0.187 -0.837,0.187 -0.324,0 -0.592,-0.083 -0.804,-0.251 -0.213,-0.167 -0.319,-0.382 -0.319,-0.644 0,-0.4 0.179,-0.692 0.536,-0.876 0.357,-0.183 0.739,-0.275 1.148,-0.275 0.838,0 1.53,0.318 2.077,0.954 0.546,0.636 1.119,1.663 1.716,3.08 l 3.444,8.206 c 0.109,0.277 0.239,0.494 0.388,0.65 0.149,0.156 0.373,0.251 0.672,0.284 V 0.679 H 92.604 V 0.403 l 0.339,-0.02 c 0.204,-0.013 0.372,-0.06 0.503,-0.141 0.131,-0.08 0.197,-0.208 0.197,-0.382 0,-0.068 -0.024,-0.195 -0.072,-0.383 -0.047,-0.188 -0.082,-0.309 -0.103,-0.363 l -2.084,-4.963 -2.53,4.924 c -0.095,0.195 -0.16,0.34 -0.197,0.438 L 88.603,-0.2 c 0,0.255 0.167,0.426 0.503,0.513 0.174,0.053 0.444,0.084 0.809,0.09 v 0.276 h -4.614 z m 20.532,-3.591 2.577,5.549 2.566,-5.549 z m -0.063,-5.175 v 0.374 c -0.524,0.039 -0.88,0.097 -1.069,0.176 -0.306,0.13 -0.459,0.365 -0.459,0.705 0,0.169 0.056,0.399 0.17,0.69 0.113,0.29 0.46,1.095 1.041,2.413 h 5.901 l 0.896,-1.938 c 0.131,-0.274 0.233,-0.535 0.306,-0.783 0.073,-0.248 0.11,-0.421 0.11,-0.519 0,-0.294 -0.095,-0.478 -0.284,-0.554 -0.19,-0.075 -0.612,-0.138 -1.266,-0.19 v -0.374 h 5.694 v 0.374 c -0.525,0.065 -0.899,0.187 -1.121,0.366 -0.222,0.18 -0.519,0.648 -0.891,1.404 L 109.22,5.205 h -0.446 l -4.665,-9.889 c -0.699,-1.482 -1.192,-2.389 -1.48,-2.721 -0.288,-0.331 -0.72,-0.526 -1.295,-0.584 v -0.374 z m 11.721,0 h 5.39 v 0.324 c -0.678,-0.013 -1.163,0.09 -1.454,0.31 -0.292,0.22 -0.437,0.612 -0.437,1.176 v 4.438 c 0,0.393 0.185,0.775 0.557,1.146 0.372,0.37 0.685,0.556 0.94,0.556 0.161,0 0.381,-0.115 0.662,-0.345 0.28,-0.229 0.559,-0.344 0.836,-0.344 0.27,0 0.494,0.092 0.672,0.275 0.179,0.184 0.268,0.41 0.268,0.679 0,0.302 -0.117,0.553 -0.351,0.753 -0.233,0.2 -0.537,0.3 -0.909,0.3 -0.468,0 -0.92,-0.164 -1.354,-0.492 -0.435,-0.328 -0.887,-0.784 -1.354,-1.367 v 1.613 l -0.017,0.207 -0.092,0.049 c -0.385,-0.157 -0.759,-0.298 -1.123,-0.423 -0.167,-0.059 -0.468,-0.157 -0.904,-0.295 -0.436,-0.138 -0.861,-0.273 -1.275,-0.404 v -0.324 c 0.131,0.026 0.257,0.047 0.377,0.064 l 0.29,0.024 c 0.357,0 0.603,-0.139 0.738,-0.418 0.134,-0.279 0.202,-0.743 0.202,-1.392 v -4.438 c 0,-0.525 -0.109,-0.867 -0.328,-1.028 -0.219,-0.161 -0.663,-0.267 -1.334,-0.32 z m 11.069,9.071 v 2.421 l -0.028,0.147 -0.169,0.02 C 127.539,2.299 127.016,1.684 126.794,1.451 126.572,1.218 126.209,0.915 125.706,0.541 125.531,0.41 125.428,0.326 125.395,0.29 L 125.346,0.138 125.373,0.059 125.455,0 h 1.192 v -5.963 c 0,-0.662 0.083,-1.18 0.251,-1.554 0.306,-0.689 0.889,-1.033 1.749,-1.033 0.394,0 0.802,0.095 1.225,0.285 0.422,0.19 0.823,0.515 1.202,0.974 l 0.241,0.295 -0.285,0.217 c -0.247,-0.243 -0.468,-0.42 -0.661,-0.532 -0.193,-0.111 -0.421,-0.167 -0.683,-0.167 -0.51,0 -0.853,0.226 -1.028,0.679 -0.095,0.256 -0.142,0.633 -0.142,1.132 L 128.538,0 h 2.23 v 0.708 z m 4.13,-9.15 h 0.285 l 0.152,0.202 0.229,0.083 c 0.102,0 0.43,-0.065 0.983,-0.196 0.553,-0.132 1.047,-0.197 1.484,-0.197 1.04,0 1.882,0.246 2.526,0.738 0.644,0.492 0.966,1.125 0.966,1.899 0,1.01 -0.776,1.895 -2.328,2.656 l -1.443,0.699 c -1.006,0.472 -1.509,1.01 -1.509,1.613 0,0.381 0.146,0.712 0.437,0.994 0.292,0.282 0.693,0.423 1.203,0.423 0.853,0 1.505,-0.328 1.957,-0.984 0.247,-0.354 0.444,-0.849 0.59,-1.485 h 0.339 l -0.077,2.745 h -0.262 L 138.069,0.59 c -0.058,-0.033 -0.153,-0.049 -0.284,-0.049 -0.059,0 -0.319,0.066 -0.782,0.197 -0.463,0.131 -0.887,0.197 -1.274,0.197 -0.881,0 -1.614,-0.236 -2.197,-0.709 -0.583,-0.472 -0.874,-1.076 -0.874,-1.81 0,-0.597 0.211,-1.115 0.634,-1.555 0.423,-0.439 1.083,-0.875 1.979,-1.308 l 1.224,-0.63 c 0.459,-0.243 0.78,-0.492 0.962,-0.748 0.182,-0.256 0.273,-0.521 0.273,-0.797 0,-0.433 -0.158,-0.785 -0.474,-1.057 -0.317,-0.273 -0.748,-0.409 -1.293,-0.409 -0.982,0 -1.727,0.367 -2.236,1.102 -0.283,0.4 -0.509,0.974 -0.676,1.722 h -0.361 z" /></g><g
           transform="translate(220.3803,44.9698)"
           id="g120"><path
             id="path122"
             style="fill:#67111a;fill-opacity:1;fill-rule:nonzero;stroke:none"
             d="M 0,0 C 0.04,0.263 0.025,0.481 -0.044,0.653 -0.115,0.83 -0.234,0.968 -0.4,1.067 -0.567,1.166 -0.771,1.215 -1.012,1.215 -1.389,1.215 -1.782,1.079 -2.191,0.805 -2.6,0.531 -3.045,0.113 -3.526,-0.449 L -2.947,1.02 H -3.832 L -5.73,-3.638 h 0.986 c 0.484,1.349 1.086,2.445 1.806,3.286 0.72,0.842 1.363,1.263 1.931,1.263 L -0.793,0.86 -0.667,0.715 -0.679,0.492 C -0.707,0.396 -0.754,0.283 -0.82,0.152 l -0.892,-1.696 c -0.147,-0.276 -0.237,-0.554 -0.27,-0.836 -0.032,-0.281 -0.005,-0.529 0.081,-0.742 0.086,-0.214 0.206,-0.379 0.36,-0.497 0.154,-0.117 0.326,-0.175 0.517,-0.175 0.393,0 0.844,0.187 1.353,0.562 0.509,0.375 1.003,0.896 1.481,1.563 L 1.525,-1.442 C 1.009,-2.072 0.526,-2.564 0.075,-2.915 -0.376,-3.267 -0.739,-3.443 -1.014,-3.443 l -0.211,0.055 -0.126,0.133 10e-4,0.25 c 0.027,0.099 0.099,0.255 0.215,0.469 l 0.861,1.711 C -0.131,-0.538 -0.04,-0.263 0,0" /></g><g
           transform="translate(207.2951,48.2913)"
           id="g124"><path
             id="path126"
             style="fill:#67111a;fill-opacity:1;fill-rule:nonzero;stroke:none"
             d="m 0,0 c -0.111,-0.143 -0.13,-0.304 -0.059,-0.481 l 0.247,-0.277 0.369,-0.121 c 0.196,0 0.346,0.07 0.45,0.211 0.103,0.141 0.121,0.294 0.054,0.461 L 0.818,0.094 0.478,0.215 C 0.27,0.215 0.111,0.143 0,0" /></g><g
           transform="translate(205.4922,43.8796)"
           id="g128"><path
             id="path130"
             style="fill:#67111a;fill-opacity:1;fill-rule:nonzero;stroke:none"
             d="m 0,0 c -0.199,-0.495 -0.316,-0.896 -0.349,-1.204 -0.033,-0.307 0.007,-0.601 0.12,-0.883 0.084,-0.208 0.209,-0.375 0.374,-0.5 0.166,-0.125 0.347,-0.188 0.544,-0.188 0.303,0 0.66,0.174 1.071,0.52 0.411,0.347 0.874,0.864 1.388,1.552 L 2.805,-0.5 C 2.327,-1.125 1.904,-1.6 1.538,-1.923 1.171,-2.246 0.872,-2.407 0.642,-2.407 L 0.418,-2.345 0.281,-2.18 c -0.036,0.088 -0.04,0.205 -0.012,0.351 0.029,0.146 0.097,0.349 0.206,0.61 L 1.829,2.11 H 0.911 Z" /></g><g
           transform="translate(202.9432,46.8026)"
           id="g132"><path
             id="path134"
             style="fill:#67111a;fill-opacity:1;fill-rule:nonzero;stroke:none"
             d="M 0,0 C 0.072,0.177 0.083,0.328 0.032,0.453 L -0.09,0.621 -0.292,0.672 C -0.416,0.672 -0.518,0.587 -0.598,0.418 -0.679,0.249 -0.73,0.01 -0.752,-0.297 -1.177,-0.875 -1.541,-1.352 -1.844,-1.727 -2.148,-2.102 -2.423,-2.423 -2.67,-2.689 l 0.288,-0.234 c 0.313,0.339 0.619,0.692 0.917,1.059 0.299,0.367 0.596,0.754 0.893,1.161 0.428,-1.272 0.505,-2.363 0.229,-3.275 -0.276,-0.912 -0.762,-1.368 -1.458,-1.368 l -0.242,0.035 -0.124,0.098 c -0.012,0.031 0.052,0.09 0.195,0.176 0.142,0.086 0.174,0.225 0.097,0.418 l -0.24,0.281 -0.351,0.118 c -0.196,0 -0.333,-0.068 -0.411,-0.204 -0.077,-0.135 -0.076,-0.302 0.004,-0.5 0.084,-0.208 0.242,-0.378 0.474,-0.508 0.233,-0.13 0.492,-0.195 0.778,-0.195 0.955,0 1.621,0.339 1.997,1.016 0.375,0.677 0.347,1.552 -0.086,2.626 -0.048,0.12 -0.117,0.277 -0.207,0.473 -0.09,0.195 -0.241,0.514 -0.453,0.957 C -0.195,-0.362 -0.072,-0.177 0,0" /></g><g
           transform="translate(198.4422,48.2913)"
           id="g136"><path
             id="path138"
             style="fill:#67111a;fill-opacity:1;fill-rule:nonzero;stroke:none"
             d="m 0,0 c -0.111,-0.143 -0.13,-0.304 -0.059,-0.481 l 0.247,-0.277 0.369,-0.121 c 0.196,0 0.346,0.07 0.45,0.211 0.103,0.141 0.121,0.294 0.054,0.461 L 0.818,0.094 0.478,0.215 C 0.27,0.215 0.111,0.143 0,0" /></g><g
           transform="translate(196.6393,43.8796)"
           id="g140"><path
             id="path142"
             style="fill:#67111a;fill-opacity:1;fill-rule:nonzero;stroke:none"
             d="m 0,0 c -0.199,-0.495 -0.316,-0.896 -0.349,-1.204 -0.033,-0.307 0.007,-0.601 0.12,-0.883 0.084,-0.208 0.209,-0.375 0.374,-0.5 0.166,-0.125 0.347,-0.188 0.544,-0.188 0.303,0 0.66,0.174 1.071,0.52 0.411,0.347 0.874,0.864 1.388,1.552 L 2.805,-0.5 C 2.327,-1.125 1.904,-1.6 1.538,-1.923 1.171,-2.246 0.872,-2.407 0.642,-2.407 L 0.418,-2.345 0.281,-2.18 c -0.036,0.088 -0.04,0.205 -0.012,0.351 0.029,0.146 0.097,0.349 0.206,0.61 L 1.829,2.11 H 0.911 Z" /></g><g
           transform="translate(192.6474,50.7063)"
           id="g144"><path
             id="path146"
             style="fill:#67111a;fill-opacity:1;fill-rule:nonzero;stroke:none"
             d="m 0,0 c -0.374,-0.222 -0.755,-0.332 -1.143,-0.332 -0.241,0 -0.469,0.035 -0.683,0.105 -0.213,0.071 -0.492,0.218 -0.835,0.442 L -2.75,0.27 c -0.898,0.568 -1.714,0.852 -2.45,0.852 -0.888,0 -1.576,-0.256 -2.064,-0.766 -0.488,-0.511 -0.604,-1.082 -0.35,-1.712 0.172,-0.427 0.461,-0.771 0.866,-1.032 0.406,-0.26 0.858,-0.39 1.359,-0.39 0.606,0 1.131,0.169 1.573,0.508 0.442,0.338 0.687,0.76 0.737,1.266 l -0.279,0.211 c -0.087,-0.495 -0.324,-0.894 -0.711,-1.196 -0.386,-0.302 -0.841,-0.453 -1.363,-0.453 -0.41,0 -0.779,0.096 -1.107,0.289 -0.328,0.193 -0.555,0.448 -0.684,0.766 -0.207,0.516 -0.114,0.999 0.28,1.45 0.394,0.45 0.942,0.676 1.644,0.676 0.545,0 1.189,-0.24 1.933,-0.719 0.168,-0.11 0.292,-0.188 0.373,-0.235 0.323,-0.187 0.618,-0.32 0.885,-0.398 0.268,-0.079 0.55,-0.118 0.848,-0.118 0.253,0 0.483,0.028 0.691,0.082 0.209,0.055 0.416,0.14 0.623,0.254 -1.109,-1.318 -1.912,-2.957 -2.409,-4.916 -0.042,-0.145 -0.072,-0.252 -0.09,-0.32 l -0.053,-0.203 c -0.453,-1.72 -0.986,-2.947 -1.6,-3.681 0.147,-0.016 0.252,-0.026 0.316,-0.031 l 0.163,-0.008 c 0.523,0 1.058,0.117 1.607,0.351 0.548,0.235 1.091,0.579 1.627,1.032 0.994,0.839 2.125,2.478 3.395,4.916 l 0.192,0.359 c 0.611,1.188 1.193,2.083 1.745,2.685 0.552,0.602 1.064,0.903 1.536,0.903 L 6.664,0.66 6.818,0.551 6.632,0.363 6.633,0.152 6.858,-0.082 7.199,-0.184 c 0.162,0 0.286,0.059 0.371,0.176 C 7.655,0.109 7.668,0.241 7.609,0.387 7.527,0.59 7.385,0.748 7.182,0.86 6.98,0.972 6.738,1.028 6.457,1.028 5.401,1.028 4.122,-0.363 2.62,-3.146 2.35,-3.646 2.14,-4.032 1.991,-4.302 1.145,-5.855 0.281,-7.033 -0.6,-7.835 -1.482,-8.637 -2.397,-9.08 -3.347,-9.164 c 0.505,0.49 0.953,1.118 1.344,1.884 0.39,0.766 0.725,1.667 1.003,2.704 0.034,0.125 0.083,0.318 0.147,0.578 0.333,1.277 0.683,2.249 1.049,2.916 0.075,0.135 0.207,0.346 0.398,0.633 0.191,0.286 0.469,0.693 0.836,1.219 L 1.075,0.981 C 0.732,0.548 0.374,0.221 0,0" /></g><g
           transform="translate(180.3202,46.0836)"
           id="g148"><path
             id="path150"
             style="fill:#67111a;fill-opacity:1;fill-rule:nonzero;stroke:none"
             d="m 0,0 c -0.167,0.01 -0.276,0.016 -0.327,0.016 -0.247,0 -0.431,-0.068 -0.554,-0.204 -0.122,-0.135 -0.202,-0.359 -0.239,-0.672 l -2.617,-2.579 1.483,3.345 h -0.91 l -2.041,-4.658 h 0.927 l 0.239,0.579 3.028,2.876 c 0.121,-0.146 0.272,-0.257 0.454,-0.333 0.183,-0.075 0.397,-0.113 0.644,-0.113 l 0.161,0.02 0.183,0.027 0.081,0.258 -0.229,-0.016 c -0.191,0 -0.339,0.017 -0.442,0.051 l -0.2,0.16 c -0.048,0.12 -0.03,0.276 0.056,0.469 0.085,0.193 0.247,0.446 0.486,0.758 z" /></g><g
           transform="translate(168.8979,43.6842)"
           id="g152"><path
             id="path154"
             style="fill:#67111a;fill-opacity:1;fill-rule:nonzero;stroke:none"
             d="m 0,0 c -0.161,-0.38 -0.256,-0.724 -0.284,-1.032 -0.027,-0.307 0.01,-0.588 0.113,-0.844 0.086,-0.213 0.213,-0.381 0.38,-0.504 0.168,-0.122 0.358,-0.183 0.571,-0.183 0.332,0 0.696,0.134 1.094,0.402 0.397,0.268 0.783,0.642 1.157,1.122 0.023,-0.183 0.048,-0.335 0.075,-0.458 L 3.203,-1.821 C 3.3,-2.061 3.428,-2.244 3.589,-2.372 3.75,-2.5 3.935,-2.563 4.143,-2.563 c 0.308,0 0.687,0.187 1.134,0.562 0.447,0.375 0.877,0.878 1.292,1.509 L 6.243,-0.289 C 5.748,-0.93 5.319,-1.413 4.956,-1.739 4.593,-2.065 4.299,-2.227 4.075,-2.227 l -0.235,0.07 -0.152,0.156 c -0.044,0.11 -0.013,0.292 0.092,0.547 l 0.017,0.039 1.577,3.721 H 4.371 C 3.903,0.972 3.315,-0.117 2.608,-0.961 1.9,-1.805 1.285,-2.227 0.763,-2.227 l -0.259,0.066 -0.15,0.176 -0.013,0.281 c 0.019,0.12 0.057,0.255 0.115,0.407 l 1.556,3.603 h -1.02 z" /></g><g
           transform="translate(168.7399,49.3074)"
           id="g156"><path
             id="path158"
             style="fill:#67111a;fill-opacity:1;fill-rule:nonzero;stroke:none"
             d="m 0,0 c 0.128,0.31 0.119,0.645 -0.026,1.004 -0.168,0.417 -0.488,0.748 -0.96,0.993 -0.472,0.245 -1.037,0.367 -1.694,0.367 -0.86,0 -1.757,-0.234 -2.691,-0.703 -0.935,-0.469 -1.79,-1.121 -2.566,-1.954 -0.845,-0.902 -1.404,-1.885 -1.676,-2.95 -0.273,-1.066 -0.227,-2.052 0.139,-2.959 0.243,-0.604 0.636,-1.086 1.177,-1.445 0.541,-0.36 1.145,-0.54 1.814,-0.54 0.854,0 1.667,0.279 2.439,0.837 0.773,0.557 1.439,1.346 1.999,2.368 0.42,0.771 0.689,1.552 0.808,2.344 0.119,0.792 0.076,1.441 -0.127,1.946 -0.154,0.381 -0.396,0.678 -0.726,0.891 -0.33,0.214 -0.709,0.321 -1.136,0.321 -0.461,0 -0.923,-0.123 -1.386,-0.368 -0.463,-0.245 -0.852,-0.581 -1.169,-1.008 -0.267,-0.354 -0.435,-0.729 -0.503,-1.125 -0.068,-0.396 -0.03,-0.771 0.113,-1.126 0.109,-0.271 0.289,-0.488 0.541,-0.652 0.251,-0.164 0.526,-0.246 0.824,-0.246 0.567,0 1.049,0.278 1.445,0.836 0.396,0.557 0.586,1.266 0.571,2.126 l -0.288,0.109 c -0.094,-0.813 -0.307,-1.469 -0.639,-1.969 -0.332,-0.501 -0.703,-0.751 -1.113,-0.751 -0.197,0 -0.371,0.05 -0.524,0.149 -0.152,0.099 -0.264,0.237 -0.335,0.414 -0.09,0.224 -0.087,0.516 0.01,0.875 0.096,0.36 0.273,0.73 0.53,1.11 0.278,0.396 0.602,0.705 0.97,0.926 0.369,0.222 0.736,0.332 1.101,0.332 0.309,0 0.584,-0.079 0.825,-0.238 0.241,-0.159 0.417,-0.376 0.528,-0.653 0.179,-0.442 0.213,-1.012 0.103,-1.707 -0.11,-0.696 -0.354,-1.419 -0.731,-2.169 -0.523,-1.016 -1.163,-1.815 -1.921,-2.395 -0.757,-0.581 -1.529,-0.872 -2.315,-0.872 -0.483,0 -0.921,0.121 -1.314,0.364 -0.392,0.242 -0.669,0.564 -0.831,0.965 -0.261,0.646 -0.241,1.472 0.059,2.477 0.299,1.006 0.857,2.108 1.671,3.306 0.593,0.87 1.3,1.557 2.119,2.06 0.82,0.502 1.62,0.754 2.401,0.754 0.506,0 0.942,-0.097 1.309,-0.289 0.367,-0.193 0.617,-0.454 0.749,-0.782 0.118,-0.292 0.128,-0.564 0.03,-0.817 -0.097,-0.252 -0.301,-0.483 -0.61,-0.691 L -0.76,-0.77 C -0.381,-0.567 -0.128,-0.31 0,0" /></g><g
           transform="translate(151.6549,46.8026)"
           id="g160"><path
             id="path162"
             style="fill:#67111a;fill-opacity:1;fill-rule:nonzero;stroke:none"
             d="M 0,0 C 0.072,0.177 0.083,0.328 0.032,0.453 L -0.09,0.621 -0.292,0.672 C -0.416,0.672 -0.518,0.587 -0.598,0.418 -0.679,0.249 -0.73,0.01 -0.752,-0.297 -1.177,-0.875 -1.541,-1.352 -1.844,-1.727 -2.148,-2.102 -2.423,-2.423 -2.67,-2.689 l 0.288,-0.234 c 0.313,0.339 0.619,0.692 0.917,1.059 0.299,0.367 0.596,0.754 0.893,1.161 0.428,-1.272 0.505,-2.363 0.229,-3.275 -0.276,-0.912 -0.762,-1.368 -1.458,-1.368 l -0.242,0.035 -0.124,0.098 c -0.012,0.031 0.052,0.09 0.195,0.176 0.142,0.086 0.174,0.225 0.097,0.418 l -0.24,0.281 -0.351,0.118 c -0.196,0 -0.333,-0.068 -0.411,-0.204 -0.077,-0.135 -0.076,-0.302 0.004,-0.5 0.084,-0.208 0.242,-0.378 0.474,-0.508 0.233,-0.13 0.492,-0.195 0.778,-0.195 0.955,0 1.621,0.339 1.997,1.016 0.375,0.677 0.347,1.552 -0.086,2.626 -0.048,0.12 -0.117,0.277 -0.207,0.473 -0.09,0.195 -0.241,0.514 -0.453,0.957 C -0.195,-0.362 -0.072,-0.177 0,0" /></g><g
           transform="translate(146.9093,46.8026)"
           id="g164"><path
             id="path166"
             style="fill:#67111a;fill-opacity:1;fill-rule:nonzero;stroke:none"
             d="M 0,0 C 0.072,0.177 0.083,0.328 0.032,0.453 L -0.09,0.621 -0.292,0.672 C -0.416,0.672 -0.518,0.587 -0.598,0.418 -0.679,0.249 -0.73,0.01 -0.752,-0.297 -1.177,-0.875 -1.541,-1.352 -1.844,-1.727 -2.148,-2.102 -2.423,-2.423 -2.67,-2.689 l 0.288,-0.234 c 0.313,0.339 0.619,0.692 0.917,1.059 0.299,0.367 0.596,0.754 0.893,1.161 0.428,-1.272 0.505,-2.363 0.229,-3.275 -0.276,-0.912 -0.762,-1.368 -1.458,-1.368 l -0.242,0.035 -0.124,0.098 c -0.012,0.031 0.052,0.09 0.195,0.176 0.142,0.086 0.174,0.225 0.097,0.418 l -0.24,0.281 -0.351,0.118 c -0.196,0 -0.333,-0.068 -0.411,-0.204 -0.077,-0.135 -0.076,-0.302 0.004,-0.5 0.084,-0.208 0.242,-0.378 0.474,-0.508 0.233,-0.13 0.492,-0.195 0.778,-0.195 0.955,0 1.621,0.339 1.997,1.016 0.375,0.677 0.347,1.552 -0.086,2.626 -0.048,0.12 -0.117,0.277 -0.207,0.473 -0.09,0.195 -0.241,0.514 -0.453,0.957 C -0.195,-0.362 -0.072,-0.177 0,0" /></g><g
           transform="translate(136.1978,42.0586)"
           id="g168"><path
             id="path170"
             style="fill:#67111a;fill-opacity:1;fill-rule:nonzero;stroke:none"
             d="m 0,0 c -0.578,-0.412 -1.07,-0.617 -1.474,-0.617 -0.18,0 -0.332,0.035 -0.456,0.105 -0.124,0.07 -0.214,0.176 -0.271,0.317 -0.065,0.161 -0.046,0.422 0.056,0.781 0.102,0.36 0.275,0.753 0.519,1.18 0.333,0.61 0.722,1.105 1.167,1.485 0.445,0.381 0.838,0.571 1.181,0.571 L 1.003,3.751 1.171,3.564 C 1.222,3.439 1.115,3.355 0.851,3.314 L 0.664,3.275 0.484,3.126 0.49,2.892 0.699,2.646 c 0.097,-0.06 0.21,-0.09 0.34,-0.09 0.241,0 0.421,0.096 0.54,0.289 C 1.698,3.037 1.71,3.251 1.616,3.486 1.536,3.684 1.387,3.845 1.168,3.97 0.949,4.095 0.702,4.158 0.426,4.158 0.016,4.158 -0.429,4.03 -0.911,3.775 -1.392,3.52 -1.809,3.181 -2.161,2.759 -2.525,2.337 -2.76,1.868 -2.866,1.352 c -0.107,-0.516 -0.077,-0.98 0.088,-1.391 0.116,-0.287 0.289,-0.508 0.521,-0.664 0.231,-0.157 0.507,-0.235 0.828,-0.235 0.5,0 1.05,0.209 1.652,0.625 0.601,0.417 1.223,1.022 1.864,1.814 L 1.797,1.719 C 1.177,0.985 0.578,0.411 0,0" /></g><g
           transform="translate(130.8481,42.0586)"
           id="g172"><path
             id="path174"
             style="fill:#67111a;fill-opacity:1;fill-rule:nonzero;stroke:none"
             d="m 0,0 c -0.578,-0.412 -1.07,-0.617 -1.474,-0.617 -0.18,0 -0.332,0.035 -0.456,0.105 -0.124,0.07 -0.214,0.176 -0.271,0.317 -0.065,0.161 -0.046,0.422 0.056,0.781 0.103,0.36 0.275,0.753 0.519,1.18 0.333,0.61 0.722,1.105 1.167,1.485 0.445,0.381 0.838,0.571 1.181,0.571 L 1.003,3.751 1.172,3.564 C 1.222,3.439 1.115,3.355 0.851,3.314 L 0.664,3.275 0.484,3.126 0.49,2.892 0.699,2.646 c 0.097,-0.06 0.21,-0.09 0.34,-0.09 0.241,0 0.421,0.096 0.54,0.289 C 1.698,3.037 1.71,3.251 1.616,3.486 1.536,3.684 1.387,3.845 1.168,3.97 0.949,4.095 0.702,4.158 0.426,4.158 0.016,4.158 -0.429,4.03 -0.911,3.775 -1.392,3.52 -1.809,3.181 -2.161,2.759 -2.525,2.337 -2.76,1.868 -2.866,1.352 c -0.107,-0.516 -0.077,-0.98 0.088,-1.391 0.116,-0.287 0.289,-0.508 0.521,-0.664 0.232,-0.157 0.507,-0.235 0.828,-0.235 0.5,0 1.05,0.209 1.652,0.625 0.601,0.417 1.223,1.022 1.864,1.814 L 1.797,1.719 C 1.177,0.985 0.578,0.411 0,0" /></g><g
           transform="translate(121.0097,43.6842)"
           id="g176"><path
             id="path178"
             style="fill:#67111a;fill-opacity:1;fill-rule:nonzero;stroke:none"
             d="m 0,0 c -0.161,-0.38 -0.256,-0.724 -0.284,-1.032 -0.027,-0.307 0.01,-0.588 0.113,-0.844 0.086,-0.213 0.213,-0.381 0.38,-0.504 0.168,-0.122 0.358,-0.183 0.571,-0.183 0.332,0 0.696,0.134 1.094,0.402 0.397,0.268 0.783,0.642 1.157,1.122 0.023,-0.183 0.048,-0.335 0.075,-0.458 L 3.203,-1.821 C 3.3,-2.061 3.428,-2.244 3.589,-2.372 3.75,-2.5 3.935,-2.563 4.143,-2.563 c 0.308,0 0.687,0.187 1.134,0.562 0.447,0.375 0.877,0.878 1.292,1.509 L 6.243,-0.289 C 5.748,-0.93 5.319,-1.413 4.956,-1.739 4.593,-2.065 4.299,-2.227 4.075,-2.227 l -0.235,0.07 -0.152,0.156 c -0.044,0.11 -0.013,0.292 0.092,0.547 l 0.017,0.039 1.577,3.721 H 4.371 C 3.903,0.972 3.315,-0.117 2.608,-0.961 1.9,-1.805 1.285,-2.227 0.763,-2.227 l -0.259,0.066 -0.15,0.176 -0.013,0.281 c 0.019,0.12 0.057,0.255 0.115,0.407 l 1.556,3.603 h -1.02 z" /></g><g
           transform="translate(212.7534,44.1453)"
           id="g180"><path
             id="path182"
             style="fill:#67111a;fill-opacity:1;fill-rule:nonzero;stroke:none"
             d="m 0,0 0.09,-0.172 0.158,-0.234 c -0.393,-0.782 -0.792,-1.36 -1.197,-1.735 -0.404,-0.376 -0.823,-0.563 -1.256,-0.563 -0.185,0 -0.346,0.04 -0.483,0.121 -0.136,0.081 -0.233,0.192 -0.289,0.332 -0.084,0.209 -0.052,0.521 0.098,0.938 0.149,0.417 0.395,0.883 0.738,1.399 0.352,0.505 0.708,0.901 1.067,1.188 0.359,0.286 0.674,0.43 0.943,0.43 L 0.185,1.61 0.394,1.344 0.443,1.2 0.461,1.094 C 0.253,1.079 0.102,0.95 0.006,0.707 -0.091,0.465 -0.092,0.229 0,0 M 2.128,-0.43 1.774,-0.574 C 1.661,-0.603 1.538,-0.617 1.403,-0.617 L 1.045,-0.574 C 0.924,-0.546 0.79,-0.498 0.645,-0.43 0.772,-0.076 0.843,0.263 0.859,0.586 0.875,0.909 0.835,1.191 0.738,1.43 0.66,1.623 0.528,1.778 0.34,1.895 0.152,2.012 -0.06,2.071 -0.295,2.071 -0.7,2.071 -1.119,1.958 -1.553,1.731 -1.987,1.504 -2.405,1.18 -2.808,0.758 -3.229,0.31 -3.509,-0.179 -3.65,-0.707 c -0.141,-0.529 -0.125,-1.007 0.047,-1.434 0.107,-0.266 0.287,-0.482 0.54,-0.649 0.252,-0.167 0.527,-0.25 0.825,-0.25 0.551,0 1.07,0.207 1.557,0.621 0.488,0.414 0.898,0.997 1.23,1.747 0.149,-0.078 0.299,-0.137 0.45,-0.176 0.151,-0.039 0.296,-0.059 0.437,-0.059 0.196,0 0.367,0.02 0.511,0.059 0.144,0.039 0.275,0.103 0.39,0.191 z" /></g><g
           transform="translate(140.8453,45.3372)"
           id="g184"><path
             id="path186"
             style="fill:#67111a;fill-opacity:1;fill-rule:nonzero;stroke:none"
             d="M 0,0 C 0.413,0.383 0.791,0.574 1.134,0.574 L 1.398,0.524 1.541,0.379 C 1.644,0.124 1.435,-0.211 0.913,-0.625 0.392,-1.039 -0.308,-1.361 -1.187,-1.59 -0.809,-0.913 -0.413,-0.383 0,0 m 0.629,-3.337 c -0.587,-0.341 -1.114,-0.512 -1.58,-0.512 -0.186,0 -0.346,0.035 -0.481,0.105 -0.135,0.071 -0.227,0.166 -0.275,0.286 -0.059,0.145 -0.06,0.345 -0.005,0.598 0.055,0.252 0.162,0.532 0.319,0.84 1.144,0.297 2.022,0.68 2.633,1.149 C 1.852,-0.403 2.078,0.03 1.918,0.426 1.857,0.577 1.754,0.69 1.608,0.766 1.463,0.841 1.275,0.879 1.044,0.879 0.623,0.879 0.181,0.766 -0.281,0.539 -0.742,0.313 -1.148,0.004 -1.496,-0.387 c -0.442,-0.505 -0.731,-1.012 -0.866,-1.52 -0.135,-0.508 -0.109,-0.994 0.078,-1.458 0.105,-0.26 0.284,-0.47 0.536,-0.629 0.252,-0.159 0.536,-0.238 0.85,-0.238 0.506,0 1.072,0.182 1.701,0.547 0.628,0.365 1.238,0.873 1.829,1.524 l -0.269,0.25 C 1.794,-2.521 1.216,-2.996 0.629,-3.337" /></g><g
           transform="translate(122.3743,49.8271)"
           id="g188"><path
             id="path190"
             style="fill:#67111a;fill-opacity:1;fill-rule:nonzero;stroke:none"
             d="m 0,0 c -0.164,-0.417 -0.437,-0.826 -0.82,-1.227 -0.477,-0.49 -1.022,-0.894 -1.635,-1.211 -0.614,-0.318 -1.266,-0.54 -1.957,-0.665 0.431,1.496 0.956,2.646 1.575,3.451 0.62,0.805 1.286,1.207 1.999,1.207 0.225,0 0.418,-0.045 0.578,-0.136 C -0.1,1.327 0.014,1.198 0.081,1.032 0.19,0.761 0.163,0.417 0,0 m -0.005,1.633 c -0.24,0.141 -0.522,0.211 -0.848,0.211 -0.882,0 -1.724,-0.436 -2.527,-1.309 -0.802,-0.872 -1.521,-2.132 -2.155,-3.778 -0.168,-0.016 -0.29,-0.025 -0.368,-0.028 l -0.218,-0.004 c -1.275,0 -2.363,0.201 -3.263,0.602 -0.9,0.401 -1.489,0.946 -1.766,1.634 -0.318,0.786 -0.158,1.471 0.477,2.055 0.636,0.584 1.597,0.875 2.883,0.875 0.348,0 0.721,-0.022 1.118,-0.066 0.397,-0.044 0.831,-0.113 1.301,-0.207 l -0.003,0.258 c -0.433,0.114 -0.865,0.199 -1.294,0.254 -0.43,0.054 -0.858,0.082 -1.285,0.082 -1.393,0 -2.427,-0.326 -3.103,-0.977 -0.676,-0.651 -0.835,-1.42 -0.478,-2.306 0.313,-0.776 0.976,-1.391 1.991,-1.844 1.014,-0.453 2.243,-0.68 3.686,-0.68 h 0.211 c -0.425,-1.636 -1.019,-2.841 -1.783,-3.615 -0.764,-0.773 -1.744,-1.16 -2.941,-1.16 -0.713,0 -1.33,0.103 -1.851,0.308 -0.522,0.206 -0.846,0.468 -0.974,0.786 -0.053,0.13 -0.064,0.232 -0.035,0.305 l 0.196,0.109 c 0.057,0 0.164,-0.025 0.321,-0.074 0.158,-0.05 0.279,-0.074 0.363,-0.074 0.157,0 0.267,0.048 0.329,0.144 0.062,0.097 0.063,0.22 0.002,0.371 -0.061,0.151 -0.16,0.269 -0.297,0.352 -0.138,0.083 -0.299,0.125 -0.485,0.125 -0.32,0 -0.567,-0.121 -0.742,-0.363 -0.175,-0.242 -0.202,-0.515 -0.08,-0.817 0.187,-0.464 0.595,-0.834 1.223,-1.11 0.628,-0.276 1.38,-0.414 2.256,-0.414 1.551,0 2.77,0.41 3.658,1.231 0.889,0.821 1.548,2.145 1.98,3.974 1.707,0.349 3.046,1.006 4.017,1.97 0.971,0.963 1.302,1.828 0.994,2.594 -0.101,0.25 -0.271,0.446 -0.51,0.586" /></g><g
           transform="translate(105.0793,46.0836)"
           id="g192"><path
             id="path194"
             style="fill:#67111a;fill-opacity:1;fill-rule:nonzero;stroke:none"
             d="m 0,0 c -0.167,0.01 -0.276,0.016 -0.327,0.016 -0.247,0 -0.431,-0.068 -0.554,-0.204 -0.122,-0.135 -0.202,-0.359 -0.239,-0.672 l -2.617,-2.579 1.483,3.345 h -0.91 l -2.041,-4.658 h 0.927 l 0.239,0.579 3.028,2.876 c 0.121,-0.146 0.272,-0.257 0.454,-0.333 0.183,-0.075 0.397,-0.113 0.644,-0.113 l 0.161,0.02 0.183,0.027 0.081,0.258 -0.229,-0.016 c -0.191,0 -0.339,0.017 -0.442,0.051 l -0.2,0.16 c -0.048,0.12 -0.03,0.276 0.056,0.469 0.085,0.193 0.247,0.446 0.486,0.758 z" /></g><g
           transform="translate(93.657,43.6842)"
           id="g196"><path
             id="path198"
             style="fill:#67111a;fill-opacity:1;fill-rule:nonzero;stroke:none"
             d="m 0,0 c -0.161,-0.38 -0.256,-0.724 -0.284,-1.032 -0.027,-0.307 0.01,-0.588 0.113,-0.844 0.086,-0.213 0.213,-0.381 0.38,-0.504 0.168,-0.122 0.358,-0.183 0.571,-0.183 0.332,0 0.696,0.134 1.094,0.402 0.397,0.268 0.783,0.642 1.157,1.122 0.023,-0.183 0.048,-0.335 0.075,-0.458 L 3.203,-1.821 C 3.3,-2.061 3.428,-2.244 3.589,-2.372 3.75,-2.5 3.935,-2.563 4.143,-2.563 c 0.308,0 0.687,0.187 1.134,0.562 0.447,0.375 0.877,0.878 1.292,1.509 L 6.243,-0.289 C 5.748,-0.93 5.319,-1.413 4.956,-1.739 4.593,-2.065 4.299,-2.227 4.075,-2.227 l -0.235,0.07 -0.152,0.156 c -0.044,0.11 -0.013,0.292 0.092,0.547 l 0.017,0.039 1.577,3.721 H 4.371 C 3.903,0.972 3.315,-0.117 2.608,-0.961 1.9,-1.805 1.285,-2.227 0.763,-2.227 l -0.259,0.066 -0.15,0.176 -0.013,0.281 c 0.019,0.12 0.057,0.255 0.115,0.407 l 1.556,3.603 h -1.02 z" /></g><g
           transform="translate(90.711,44.1453)"
           id="g200"><path
             id="path202"
             style="fill:#67111a;fill-opacity:1;fill-rule:nonzero;stroke:none"
             d="m 0,0 0.09,-0.172 0.158,-0.234 c -0.393,-0.782 -0.792,-1.36 -1.197,-1.735 -0.404,-0.376 -0.823,-0.563 -1.256,-0.563 -0.185,0 -0.346,0.04 -0.483,0.121 -0.136,0.081 -0.233,0.192 -0.289,0.332 -0.084,0.209 -0.052,0.521 0.098,0.938 0.149,0.417 0.395,0.883 0.738,1.399 0.352,0.505 0.708,0.901 1.067,1.188 0.359,0.286 0.674,0.43 0.943,0.43 L 0.185,1.61 0.393,1.344 0.443,1.2 0.461,1.094 C 0.253,1.079 0.102,0.95 0.006,0.707 -0.091,0.465 -0.092,0.229 0,0 M 2.128,-0.43 1.774,-0.574 C 1.661,-0.603 1.538,-0.617 1.403,-0.617 L 1.045,-0.574 C 0.924,-0.546 0.79,-0.498 0.645,-0.43 0.772,-0.076 0.843,0.263 0.859,0.586 0.875,0.909 0.835,1.191 0.738,1.43 0.66,1.623 0.527,1.778 0.34,1.895 0.152,2.012 -0.06,2.071 -0.296,2.071 -0.7,2.071 -1.119,1.958 -1.553,1.731 -1.987,1.504 -2.405,1.18 -2.808,0.758 -3.229,0.31 -3.509,-0.179 -3.65,-0.707 c -0.141,-0.529 -0.125,-1.007 0.047,-1.434 0.107,-0.266 0.287,-0.482 0.54,-0.649 0.252,-0.167 0.527,-0.25 0.825,-0.25 0.551,0 1.07,0.207 1.557,0.621 0.488,0.414 0.898,0.997 1.23,1.747 0.149,-0.078 0.299,-0.137 0.45,-0.176 0.151,-0.039 0.296,-0.059 0.437,-0.059 0.196,0 0.367,0.02 0.511,0.059 0.144,0.039 0.275,0.103 0.39,0.191 z" /></g><g
           transform="translate(80.3042,38.9207)"
           id="g204"><path
             id="path206"
             style="fill:#67111a;fill-opacity:1;fill-rule:nonzero;stroke:none"
             d="m 0,0 c -0.625,-0.56 -1.258,-0.84 -1.899,-0.84 -0.174,0 -0.329,0.04 -0.465,0.121 -0.137,0.081 -0.234,0.191 -0.29,0.332 -0.177,0.438 0.118,0.909 0.883,1.415 C -1.006,1.533 0.1,1.958 1.545,2.302 1.14,1.327 0.625,0.56 0,0 M 4.407,3.9 C 3.974,3.621 3.469,3.354 2.893,3.099 3.425,4.62 4.107,6.173 4.938,7.757 c 0.83,1.584 1.822,3.217 2.975,4.9 H 6.876 L 4.27,8.671 C 3.219,7.056 2.314,5.884 1.554,5.154 0.795,4.425 0.106,4.06 -0.512,4.06 c -0.191,0 -0.356,0.035 -0.497,0.106 -0.141,0.07 -0.234,0.162 -0.28,0.277 -0.087,0.214 -0.051,0.501 0.107,0.864 0.157,0.362 0.507,0.928 1.05,1.7 0.822,1.167 1.328,2.06 1.519,2.68 0.191,0.62 0.181,1.193 -0.031,1.72 -0.194,0.479 -0.519,0.841 -0.978,1.086 -0.458,0.245 -1.038,0.367 -1.74,0.367 -0.674,0 -1.307,-0.101 -1.9,-0.305 -0.592,-0.203 -1.08,-0.489 -1.465,-0.859 -0.347,-0.323 -0.576,-0.665 -0.687,-1.024 -0.111,-0.36 -0.099,-0.706 0.036,-1.039 0.141,-0.35 0.367,-0.619 0.68,-0.809 0.312,-0.191 0.688,-0.286 1.126,-0.286 0.882,0 1.611,0.288 2.188,0.864 0.577,0.576 0.871,1.33 0.883,2.262 l -0.305,0.235 c -0.08,-0.875 -0.4,-1.598 -0.959,-2.169 -0.559,-0.57 -1.19,-0.856 -1.892,-0.856 -0.315,0 -0.591,0.068 -0.828,0.204 -0.237,0.135 -0.4,0.315 -0.491,0.539 -0.269,0.667 -0.019,1.318 0.75,1.954 0.769,0.635 1.78,0.953 3.033,0.953 0.5,0 0.928,-0.083 1.285,-0.25 C 0.448,12.107 0.683,11.883 0.797,11.602 0.912,11.315 0.886,10.956 0.717,10.523 0.549,10.091 0.088,9.317 -0.664,8.202 -1.276,7.296 -1.663,6.585 -1.822,6.069 -1.983,5.553 -1.979,5.086 -1.811,4.67 -1.687,4.362 -1.504,4.128 -1.262,3.966 -1.02,3.805 -0.73,3.724 -0.393,3.724 0.169,3.724 0.743,3.953 1.331,4.412 1.919,4.87 2.588,5.623 3.34,6.67 L 3.256,6.483 C 2.476,4.628 1.961,3.383 1.711,2.747 -0.031,2.304 -1.315,1.807 -2.14,1.254 -2.965,0.702 -3.264,0.145 -3.038,-0.418 c 0.099,-0.245 0.269,-0.433 0.509,-0.563 0.241,-0.13 0.536,-0.195 0.884,-0.195 0.854,0 1.676,0.339 2.468,1.016 0.791,0.677 1.419,1.605 1.883,2.782 0.717,0.281 1.341,0.584 1.871,0.907 0.53,0.323 0.959,0.664 1.286,1.023 L 5.546,4.795 C 5.219,4.477 4.839,4.179 4.407,3.9" /></g></g></g><g
       id="g208"><g
         id="g210"><g
           id="g216"><g
             id="g218"><path
               id="path242"
               style="fill:url(#linearGradient240);stroke:none"
               d="m 128.409,105.894 c -0.88,0 -1.594,-0.692 -1.594,-1.546 v 0 c 0,-0.856 0.714,-1.549 1.594,-1.549 v 0 h 45.226 c 0.882,0 1.596,0.693 1.596,1.549 v 0 c 0,0.854 -0.714,1.546 -1.596,1.546 v 0 z" /></g></g></g></g><g
       id="g244"><g
         id="g246"><g
           id="g252"><g
             id="g254"><path
               id="path278"
               style="fill:url(#linearGradient276);stroke:none"
               d="m 133.256,108.443 c -0.693,0 -1.253,-0.572 -1.253,-1.276 v 0 c 0,-0.702 0.56,-1.273 1.253,-1.273 v 0 h 35.533 c 0.693,0 1.254,0.571 1.254,1.273 v 0 c 0,0.704 -0.561,1.276 -1.254,1.276 v 0 z" /></g></g></g></g><g
       id="g280"><g
         id="g282"><g
           id="g288"><g
             id="g290"><path
               id="path300"
               style="fill:url(#linearGradient298);stroke:none"
               d="m 81.902,127.28 c 1.272,-0.5 2.503,-2.047 2.503,-2.047 v 0 l -3.958,-3.549 c 0,0 1.183,-0.32 2.592,-0.228 v 0 c 1.41,0.092 1.184,0.182 2.685,0.91 v 0 c 1.502,0.729 3.595,2.685 3.595,2.685 v 0 l -0.229,0.227 c 0,0 -2.592,1.866 -3.548,2.231 v 0 c -0.223,0.085 -0.542,0.117 -0.901,0.117 v 0 c -1.167,0 -2.739,-0.346 -2.739,-0.346" /></g></g></g></g><g
       id="g302"><g
         id="g304"><g
           id="g310"><g
             id="g312"><path
               id="path322"
               style="fill:url(#linearGradient320);stroke:none"
               d="m 77.578,124.915 c -1.092,-0.591 -1.774,-0.91 -1.774,-0.91 v 0 c 0,0 1.182,-0.546 2.003,-0.818 v 0 c 0.818,-0.274 2.001,-0.683 2.001,-0.683 v 0 l 3.051,2.592 c -0.729,0.593 -1.731,1.138 -2.277,1.138 v 0 c -0.546,0 -1.911,-0.727 -3.004,-1.319" /></g></g></g></g><g
       id="g324"><g
         id="g326"><g
           id="g332"><g
             id="g334"><path
               id="path344"
               style="fill:url(#linearGradient342);stroke:none"
               d="m 216.215,127.509 c -0.956,-0.365 -3.548,-2.231 -3.548,-2.231 v 0 l -0.229,-0.227 c 0,0 2.095,-1.956 3.596,-2.685 v 0 c 1.501,-0.728 1.274,-0.818 2.684,-0.91 v 0 c 1.411,-0.092 2.593,0.228 2.593,0.228 v 0 l -3.958,3.549 c 0,0 1.23,1.547 2.503,2.047 v 0 c 0,0 -1.573,0.346 -2.74,0.346 v 0 c -0.356,0 -0.676,-0.032 -0.901,-0.117" /></g></g></g></g><g
       id="g346"><g
         id="g348"><g
           id="g354"><g
             id="g356"><path
               id="path366"
               style="fill:url(#linearGradient364);stroke:none"
               d="m 218.898,125.096 3.051,-2.592 c 0,0 1.183,0.409 2.002,0.683 v 0 c 0.82,0.272 2.002,0.818 2.002,0.818 v 0 c 0,0 -0.682,0.319 -1.774,0.91 v 0 c -1.092,0.592 -2.458,1.319 -3.004,1.319 v 0 c -0.546,0 -1.547,-0.545 -2.277,-1.138" /></g></g></g></g><g
       id="g368"><g
         id="g370"><g
           id="g376"><g
             id="g378"><path
               id="path402"
               style="fill:url(#linearGradient400);stroke:none"
               d="m 117.212,194.171 c -5.095,-0.546 -7.174,-10.614 -4.367,-19.84 v 0 c 0.759,-2.493 2.73,-6.734 6.391,-7.183 v 0 c 0.873,-0.106 1.601,-0.808 2.165,-1.371 v 0 c 1.636,-1.637 2.183,-4.732 2.183,-4.732 v 0 c 0,0 3.457,-20.751 4.005,-24.207 v 0 c 0.544,-3.46 3.457,-16.564 3.457,-16.564 v 0 c 1.093,-1.275 1.418,-2.086 4.186,-2.185 v 0 c 5.098,-0.182 2.73,7.462 2.73,7.462 v 0 l -7.098,22.935 -4.733,13.833 c 0,0 -1.091,2.73 0.184,4.55 v 0 c 1.274,1.822 5.277,3.823 4.549,9.647 v 0 c -0.707,5.66 -6.423,17.686 -13.067,17.687 v 0 c -0.194,0 -0.389,-0.011 -0.585,-0.032" /></g></g></g></g><g
       id="g404"><g
         id="g406"><g
           id="g412"><g
             id="g414"><path
               id="path438"
               style="fill:url(#linearGradient436);stroke:none"
               d="m 181.52,193.99 c -1.821,-1.638 -8.826,-10.922 -11.831,-31.761 v 0 c 0,0 -0.365,-3.913 0.398,-4.824 v 0 c 0.332,-0.394 2.879,-0.274 2.423,-1.821 v 0 c -0.749,-2.542 -12.432,-32.763 -6.608,-36.769 v 0 c 0,0 2.912,-2.365 5.095,4.372 v 0 c 2.185,6.733 2.733,22.75 6.19,36.583 v 0 c 3.457,13.835 7.541,31.608 7.645,32.582 v 0 c 0.197,1.851 -0.376,2.66 -1.258,2.66 v 0 c -0.592,0 -1.323,-0.365 -2.054,-1.022" /></g></g></g></g><g
       id="g440"><g
         id="g442"><g
           id="g448"><g
             id="g450"><path
               id="path474"
               style="fill:url(#linearGradient472);stroke:none"
               d="m 152.403,197.819 c -0.38,-0.508 -0.799,-18.421 -0.825,-19.3 v 0 c -0.02,-0.795 -0.254,-0.971 -0.394,-0.971 v 0 h -0.023 c -0.143,0 -0.524,-0.007 -0.549,0.787 v 0 c -0.021,0.881 0.366,19.477 -0.65,19.482 v 0 c -0.531,0.003 -1.012,-11.537 -1.26,-15.202 v 0 c -0.251,-3.672 -0.081,-3.652 -0.182,-4.37 v 0 c -0.097,-0.714 -1.037,-0.825 -1.186,0.081 v 0 c -0.146,0.905 0.057,19.122 -0.215,19.394 v 0 c -0.531,0.531 -1.001,-2.639 -1.457,-5.734 v 0 c -1.001,-6.818 -1.265,-12.875 -0.82,-15.924 v 0 c 0.45,-3.053 2.277,-4.552 3.641,-5.826 v 0 c 1.164,-1.086 1.083,-1.297 1.18,-4.253 v 0 c 0.101,-2.954 0.151,-15.964 -0.296,-20.727 v 0 c -0.448,-4.765 -1.438,-11.772 -2.033,-14.774 v 0 c -0.594,-3.001 -1.683,-7.433 -0.146,-9.244 v 0 c 1.383,-1.628 3.539,-2.178 3.943,-2.178 v 0 h 0.069 c 0.409,0 2.56,0.55 3.946,2.178 v 0 c 1.535,1.811 0.446,6.243 -0.147,9.244 v 0 c -0.599,3.002 -1.588,10.009 -2.035,14.774 v 0 c -0.447,4.763 -0.397,17.773 -0.297,20.727 v 0 c 0.1,2.956 0.276,3.343 1.138,4.051 v 0 c 1.23,1.007 3.098,2.249 3.541,5.299 v 0 c 0.449,3.048 -0.013,12.023 -1.036,18.838 v 0 c -0.544,3.641 -1.265,3.834 -1.265,2.882 v 0 c 0,-0.954 0.101,-17.822 -0.046,-18.727 v 0 c -0.151,-0.906 -1.194,-1.067 -1.292,-0.355 v 0 c -0.1,0.717 -0.127,1.238 -0.127,4.916 v 0 c 0,4.433 -0.331,15.006 -1.07,15.006 v 0 z" /></g></g></g></g><g
       id="g476"><g
         id="g478"><g
           id="g484"><g
             id="g486"><path
               id="path518"
               style="fill:url(#linearGradient516);stroke:none"
               d="m 150.755,150.103 c -0.964,-1.838 -1.567,-6.773 -1.567,-6.773 v 0 l -2.548,-0.124 -0.971,-0.241 2.67,-4.612 0.636,-4.338 -2.549,0.09 c 0,0 -0.879,-0.119 -1.605,-0.483 v 0 c -0.73,-0.365 -0.366,-2.184 -0.366,-2.184 v 0 l -1.091,-1.456 c -1.092,-1.458 -1.456,-3.642 -1.456,-3.642 v 0 c 0,0 1.819,1.213 3.517,1.213 v 0 c 1.699,0 3.035,-0.848 2.914,-1.575 v 0 c -0.121,-0.729 -0.607,-0.972 -2.063,-1.822 v 0 c -1.455,-0.849 -1.455,-3.275 -1.455,-3.275 v 0 c 4.487,2.913 4.73,-0.607 4.73,-0.607 v 0 c -0.668,-4.642 -2.215,-9.011 -5.946,-8.284 v 0 c -2.881,0.562 -4.889,5.158 -5.131,5.644 v 0 c 0,0 -1.238,2.7 -0.147,3.307 v 0 c 0.781,0.435 1.54,0.402 1.901,0.372 v 0 c 0.145,-0.013 0.227,-0.025 0.221,-0.008 v 0 c -0.576,1.971 -2.304,2.518 -2.304,2.518 v 0 c 0,0 -1.125,-0.274 -1.366,0.09 v 0 c -0.241,0.364 0.152,1.699 0.152,1.699 v 0 c 0,0 -0.152,1.093 1.305,1.214 v 0 c 1.455,0.121 2.456,-0.124 2.456,-0.124 v 0 c 0.486,2.549 -2.73,3.702 -2.73,3.702 v 0 c 0,0 0.918,1.998 -0.182,1.792 v 0 c -0.97,-0.182 -3.274,-0.274 -3.274,-0.274 v 0 c 0,0 -0.485,3.035 -0.608,5.097 v 0 c -0.121,2.061 0.608,3.275 0.608,3.275 v 0 l -2.064,-0.363 c -0.364,2.061 -2.427,5.096 -2.427,5.096 v 0 c -0.847,-2.062 -0.241,-5.702 -0.241,-5.702 v 0 l -1.943,-0.486 c 0,0 0.849,-0.607 1.578,-1.942 v 0 c 0.73,-1.333 2.306,-5.582 2.306,-5.582 v 0 c 0,0 -1.576,-0.485 -2.306,-0.605 v 0 c -0.729,-0.121 0.244,-1.7 0.244,-1.7 v 0 c 0,0 0.362,-0.062 -1.216,-2.004 v 0 c -1.579,-1.941 -0.728,-3.457 -0.728,-3.457 v 0 c 0,0 1.579,1.334 2.67,1.456 v 0 c 1.092,0.121 1.093,0.122 1.578,-2.304 v 0 c 0.121,-0.607 -1.27,-1.477 -1.336,-1.943 v 0 c -0.062,-0.424 -0.06,-1.334 -0.06,-1.334 v 0 c 1.168,0.803 2.488,0.728 2.488,0.728 v 0 c 1.137,-0.47 1.227,-2.201 1.227,-2.201 v 0 c 0.529,-4.352 -0.94,-5.775 -2.547,-6.323 v 0 c -1.866,-0.638 -5.2,2.78 -5.839,4.276 v 0 c -0.896,2.095 -1.199,2.938 0.486,3.276 v 0 c 0.908,0.183 -0.746,1.047 -0.746,1.047 v 0 c 0,0 -0.954,0.349 -1.562,1.319 v 0 c -1.281,2.05 0.972,1.76 0.972,1.76 v 0 l 1.41,-0.166 c 0,0 -0.309,0.997 -1.137,1.457 v 0 c -0.548,0.302 -1.184,0.954 -1.91,2.409 v 0 c -0.729,1.456 -1.321,1.914 -1.321,1.914 v 0 c 0,0 -0.955,-0.319 -1.683,0.044 v 0 c -0.729,0.365 -0.91,2.108 -0.91,4.05 v 0 c 0,1.943 -0.184,2.413 -0.184,2.413 v 0 c -1.818,0 -2.047,0.09 -2.047,0.09 v 0 c 0,0 -1.197,2.959 -2.409,3.685 v 0 c -1.213,0.729 -0.973,0.425 -0.973,0.425 v 0 l 10.678,-23.783 c 0,0 2.531,-7.478 6.55,-7.828 v 0 c 6.004,-0.519 10.198,0 10.198,0 v 0 c -7.765,-11.284 -27.851,-7.368 -40.378,-4.853 v 0 c -2.817,0.567 -6.288,1.52 -10.119,2.675 v 0 c 7.766,6.066 8.123,13.75 6.022,15.526 v 0 c -0.792,0.672 -1.273,1.094 -1.273,1.094 v 0 l -0.607,0.848 c 0,0 0.136,0.259 -1.078,1.835 v 0 c -1.214,1.578 -6.143,2.549 -6.143,2.549 v 0 l 2.867,-2.956 c 0,0 -1.106,-1.062 -2.318,-2.033 v 0 c -1.214,-0.972 -3.551,-2.063 -3.551,-2.063 v 0 c 0.772,-0.683 2.274,-0.532 4.822,-0.046 v 0 c 2.55,0.483 4.277,1.41 4.277,1.41 v 0 c 0,0 1.038,-0.055 2.049,-1.046 v 0 c 2.412,-2.367 -0.17,-7.665 -1.139,-9.056 v 0 c -1.074,-1.546 -2.818,-3.203 -4.822,-4.824 v 0 c -0.285,-0.228 -0.588,-0.458 -0.897,-0.686 v 0 c -11.329,3.501 -25.263,8.47 -34.778,10.606 v 0 c -19.477,4.368 -25.145,-1.486 -26.302,-3.911 v 0 c -1.548,-3.249 -2.76,-15.514 34.675,-15.018 v 0 c 11.32,0.151 19.265,2.416 24.725,5.486 v 0 c 5.747,-1.887 12.364,-3.748 19.749,-5.121 v 0 c 15.654,-2.912 26.571,0.665 31.608,3.82 v 0 c 8.491,5.321 12.195,4.552 12.195,4.552 v 0 h 0.364 c 0.105,-0.22 3.216,0.814 11.582,-4.43 v 0 c 5.036,-3.155 15.955,-6.733 31.608,-3.819 v 0 c 7.385,1.372 14.004,3.234 19.748,5.121 v 0 c 5.459,-3.071 13.407,-5.337 24.727,-5.487 v 0 c 37.434,-0.496 36.221,11.77 34.673,15.017 v 0 c -1.155,2.426 -6.825,8.282 -26.3,3.912 v 0 c -9.517,-2.136 -23.45,-7.106 -34.779,-10.606 v 0 c -0.31,0.228 -0.612,0.457 -0.897,0.687 v 0 c -2.003,1.622 -3.749,3.276 -4.823,4.824 v 0 c -0.968,1.39 -3.55,6.689 -1.137,9.054 v 0 c 1.01,0.992 2.047,1.048 2.047,1.048 v 0 c 0,0 1.727,-0.926 4.276,-1.411 v 0 c 2.55,-0.486 4.051,-0.637 4.824,0.044 v 0 c 0,0 -2.337,1.094 -3.551,2.066 v 0 c -1.213,0.971 -2.317,2.031 -2.317,2.031 v 0 l 2.866,2.959 c 0,0 -4.93,-0.972 -6.144,-2.549 v 0 c -1.214,-1.578 -1.076,-1.836 -1.076,-1.836 v 0 l -0.608,-0.851 c 0,0 -0.481,-0.42 -1.272,-1.09 v 0 c -2.103,-1.779 -1.745,-9.461 6.02,-15.527 v 0 c -3.83,-1.156 -7.302,-2.109 -10.117,-2.674 v 0 c -12.529,-2.518 -32.614,-6.433 -40.379,4.852 v 0 c 0,0 4.191,-0.401 10.196,0.122 v 0 c 4.018,0.349 6.887,7.492 6.887,7.492 v 0 l 10.342,23.996 c 0,0 0.242,0.303 -0.973,-0.424 v 0 c -1.212,-0.728 -2.409,-3.686 -2.409,-3.686 v 0 c 0,0 -0.228,-0.09 -2.046,-0.09 v 0 c 0,0 -0.185,-0.471 -0.185,-2.411 v 0 c 0,-1.944 -0.181,-3.687 -0.91,-4.049 v 0 c -0.726,-0.366 -1.682,-0.048 -1.682,-0.048 v 0 c 0,0 -0.591,-0.456 -1.321,-1.912 v 0 c -0.726,-1.457 -1.363,-2.107 -1.911,-2.411 v 0 c -0.828,-0.459 -1.137,-1.457 -1.137,-1.457 v 0 l 1.409,0.168 c 0,0 2.256,0.29 0.974,-1.762 v 0 c -0.609,-0.971 -1.563,-1.318 -1.563,-1.318 v 0 c 0,0 -1.653,-0.865 -0.744,-1.048 v 0 c 1.685,-0.337 1.381,-1.18 0.484,-3.273 v 0 c -0.639,-1.498 -3.972,-4.916 -5.839,-4.279 v 0 c -1.606,0.549 -3.075,1.973 -2.547,6.325 v 0 c 0,0 0.092,1.729 1.228,2.2 v 0 c 0,0 1.319,0.075 2.487,-0.729 v 0 c 0,0 0.128,1.332 0.067,1.757 v 0 c -0.067,0.468 -1.882,2.004 -2.002,1.397 v 0 c -0.044,-0.213 -0.076,0.495 0.204,1.2 v 0 c 0.264,0.675 0.815,1.35 1.913,1.227 v 0 c 1.092,-0.121 2.67,-1.454 2.67,-1.454 v 0 c 0,0 0.852,1.516 -0.728,3.457 v 0 c -1.577,1.942 -1.216,2.003 -1.216,2.003 v 0 c 0,0 0.973,1.579 0.244,1.7 v 0 c -0.728,0.121 -2.305,0.607 -2.305,0.607 v 0 c 0,0 1.577,4.246 2.305,5.581 v 0 c 0.729,1.334 1.578,1.942 1.578,1.942 v 0 l -1.942,0.486 c 0,0 0.605,3.639 -0.243,5.701 v 0 c 0,0 -2.061,-3.034 -2.426,-5.097 v 0 l -2.062,0.365 c 0,0 0.728,-1.215 0.607,-3.277 v 0 c -0.123,-2.062 -0.607,-5.096 -0.607,-5.096 v 0 c 0,0 -2.305,0.092 -3.276,0.272 v 0 c -1.099,0.207 -0.181,-1.79 -0.181,-1.79 v 0 c 0,0 -3.217,-1.151 -2.731,-3.7 v 0 c 0,0 1,0.243 2.457,0.123 v 0 c 1.457,-0.122 1.733,-1.337 1.733,-1.337 v 0 c 0,0 -0.036,-1.211 -0.276,-1.575 v 0 c -0.241,-0.365 -1.366,-0.092 -1.366,-0.092 v 0 c 0,0 -1.728,-0.546 -2.305,-2.52 v 0 c -0.004,-0.015 0.076,-0.003 0.218,0.008 v 0 c 0.362,0.031 1.122,0.063 1.904,-0.37 v 0 c 1.092,-0.609 0.124,-3.429 0.124,-3.429 v 0 c -0.242,-0.486 -2.52,-4.959 -5.401,-5.52 v 0 c -3.732,-0.728 -4.908,3.382 -5.576,8.023 v 0 c 0,0 -0.128,3.778 4.361,0.866 v 0 c 0,0 0,2.427 -1.457,3.275 v 0 c -1.456,0.849 -1.942,1.094 -2.062,1.822 v 0 c -0.12,0.727 1.215,1.576 2.914,1.576 v 0 c 1.697,0 3.517,-1.212 3.517,-1.212 v 0 c 0,0 -0.363,2.185 -1.456,3.638 v 0 l -1.09,1.457 c 0,0 0.361,1.82 -0.366,2.185 v 0 c -0.728,0.363 -1.607,0.484 -1.607,0.484 v 0 l -2.549,-0.09 0.637,4.339 2.671,4.611 -0.971,0.242 -2.549,0.122 c 0,0 -0.608,4.974 -1.58,6.795 v 0 z m 65.327,-45.796 c 5.59,1.904 10.278,3.783 13.915,5.167 v 0 c 5.236,1.995 17.472,6.675 26.695,7.161 v 0 c 7.271,0.383 13.104,0.179 15.167,-4.49 v 0 c 2.377,-5.381 -7.104,-11.759 -30.519,-12.258 v 0 c -0.719,-0.016 -1.426,-0.023 -2.116,-0.023 v 0 c -10.97,0 -18.188,1.894 -23.142,4.443 m -155.9,-4.541 c -23.414,0.498 -32.896,6.877 -30.517,12.254 v 0 c 2.062,4.672 7.895,4.876 15.168,4.491 v 0 c 9.221,-0.485 21.458,-5.166 26.693,-7.158 v 0 c 3.635,-1.385 8.325,-3.265 13.916,-5.168 v 0 c -4.954,-2.549 -12.17,-4.442 -23.133,-4.442 v 0 c -0.059,0 -0.118,0 -0.177,0 v 0 c -0.638,0 -1.286,0.008 -1.95,0.023" /></g></g></g></g></g></svg>